<svg xmlns="http://www.w3.org/2000/svg" width="2000" height="2000" viewBox="0 0 2000 2000">
  <defs>
    <style>
      .cls-1 {
        fill: #000775;
      }

      .cls-1, .cls-2, .cls-3 {
        fill-rule: evenodd;
      }

      .cls-2 {
        fill: orange;
      }

      .cls-3 {
        fill: #004e99;
      }
    </style>
  </defs>
  <g>
    <g>
      <path class="cls-1" d="M5057.71,8032.19l94.33-94.33a3,3,0,0,1,4.24,0l94.33,94.33a3,3,0,0,1,0,4.24l-94.33,94.33a3,3,0,0,1-4.24,0l-94.33-94.33A3,3,0,0,1,5057.71,8032.19Z" transform="translate(-5663 -7329)"/>
      <path id="Rectangle_1_copy" data-name="Rectangle 1 copy" class="cls-2" d="M5057.17,8232.02l94.33-94.33a3,3,0,0,1,4.24,0l94.33,94.33a3,3,0,0,1,0,4.24l-94.33,94.33a3,3,0,0,1-4.24,0l-94.33-94.33A3,3,0,0,1,5057.17,8232.02Z" transform="translate(-5663 -7329)"/>
      <path id="Rectangle_1_copy_2" data-name="Rectangle 1 copy 2" class="cls-3" d="M5257.87,8232.35l94.33-94.32a3,3,0,0,1,4.24,0l94.33,94.32a3.012,3.012,0,0,1,0,4.25l-94.33,94.32a3,3,0,0,1-4.24,0l-94.33-94.32A3.012,3.012,0,0,1,5257.87,8232.35Z" transform="translate(-5663 -7329)"/>
    </g>
    <g>
      <path class="cls-1" d="M4857.96,8231.94l94.32-94.33a3.012,3.012,0,0,1,4.25,0l94.32,94.33a2.982,2.982,0,0,1,0,4.24l-94.32,94.33a3.012,3.012,0,0,1-4.25,0l-94.32-94.33A3,3,0,0,1,4857.96,8231.94Z" transform="translate(-5663 -7329)"/>
      <path id="Rectangle_1_copy-2" data-name="Rectangle 1 copy" class="cls-2" d="M4857.42,8431.77l94.32-94.32a2.994,2.994,0,0,1,4.25,0l94.32,94.32a3,3,0,0,1,0,4.24l-94.32,94.33a3.012,3.012,0,0,1-4.25,0l-94.32-94.33A3,3,0,0,1,4857.42,8431.77Z" transform="translate(-5663 -7329)"/>
      <path id="Rectangle_1_copy_2-2" data-name="Rectangle 1 copy 2" class="cls-3" d="M5058.12,8432.11l94.33-94.33a3,3,0,0,1,4.24,0l94.33,94.33a3,3,0,0,1,0,4.24l-94.33,94.33a3,3,0,0,1-4.24,0l-94.33-94.33A3,3,0,0,1,5058.12,8432.11Z" transform="translate(-5663 -7329)"/>
    </g>
    <g>
      <path class="cls-1" d="M5257.46,7832.43l94.33-94.32a3,3,0,0,1,4.24,0l94.33,94.32a3.012,3.012,0,0,1,0,4.25L5356.03,7931a2.982,2.982,0,0,1-4.24,0l-94.33-94.32A3.012,3.012,0,0,1,5257.46,7832.43Z" transform="translate(-5663 -7329)"/>
      <path id="Rectangle_1_copy-3" data-name="Rectangle 1 copy" class="cls-2" d="M5256.93,8032.26l94.32-94.32a3,3,0,0,1,4.24,0l94.33,94.32a3.012,3.012,0,0,1,0,4.25l-94.33,94.32a3,3,0,0,1-4.24,0l-94.32-94.32A2.994,2.994,0,0,1,5256.93,8032.26Z" transform="translate(-5663 -7329)"/>
      <path id="Rectangle_1_copy_2-3" data-name="Rectangle 1 copy 2" class="cls-3" d="M5457.63,8032.6l94.32-94.33a3.012,3.012,0,0,1,4.25,0l94.32,94.33a3,3,0,0,1,0,4.24l-94.32,94.33a3.012,3.012,0,0,1-4.25,0l-94.32-94.33A3,3,0,0,1,5457.63,8032.6Z" transform="translate(-5663 -7329)"/>
    </g>
    <g>
      <path class="cls-1" d="M5655.22,7433.86l94.33-94.32a2.982,2.982,0,0,1,4.24,0l94.29,94.28a3,3,0,0,1,0,4.24l-94.33,94.33a3,3,0,0,1-4.24,0l-94.29-94.28A3.012,3.012,0,0,1,5655.22,7433.86Z" transform="translate(-5663 -7329)"/>
      <path id="Rectangle_1_copy-4" data-name="Rectangle 1 copy" class="cls-2" d="M5654.64,7633.65l94.33-94.32a2.982,2.982,0,0,1,4.24,0l94.29,94.28a3,3,0,0,1,0,4.24l-94.33,94.33a3,3,0,0,1-4.24,0l-94.29-94.29A3,3,0,0,1,5654.64,7633.65Z" transform="translate(-5663 -7329)"/>
      <path id="Rectangle_1_copy_2-4" data-name="Rectangle 1 copy 2" class="cls-3" d="M5855.3,7633.94l94.33-94.32a3,3,0,0,1,4.24,0l94.29,94.28a3.012,3.012,0,0,1,0,4.25l-94.33,94.32a3,3,0,0,1-4.24,0l-94.29-94.28A3.012,3.012,0,0,1,5855.3,7633.94Z" transform="translate(-5663 -7329)"/>
    </g>
    <g>
      <path class="cls-1" d="M5455.47,7633.62l94.33-94.33a3,3,0,0,1,4.24,0l94.29,94.29a3,3,0,0,1,0,4.24L5554,7732.15a3,3,0,0,1-4.24,0l-94.29-94.29A3,3,0,0,1,5455.47,7633.62Z" transform="translate(-5663 -7329)"/>
      <path id="Rectangle_1_copy-5" data-name="Rectangle 1 copy" class="cls-2" d="M5454.89,7833.41l94.33-94.33a3,3,0,0,1,4.24,0l94.28,94.28a3.012,3.012,0,0,1,0,4.25l-94.32,94.32a3.012,3.012,0,0,1-4.25,0l-94.28-94.28A3,3,0,0,1,5454.89,7833.41Z" transform="translate(-5663 -7329)"/>
      <path id="Rectangle_1_copy_2-5" data-name="Rectangle 1 copy 2" class="cls-3" d="M5655.55,7833.7l94.33-94.33a3,3,0,0,1,4.24,0l94.28,94.29a2.982,2.982,0,0,1,0,4.24l-94.32,94.33a3,3,0,0,1-4.24,0l-94.29-94.29A3,3,0,0,1,5655.55,7833.7Z" transform="translate(-5663 -7329)"/>
    </g>
    <g>
      <path class="cls-1" d="M5854.98,7234.11l94.33-94.33a3,3,0,0,1,4.24,0l94.28,94.29a2.982,2.982,0,0,1,0,4.24l-94.32,94.33a3.012,3.012,0,0,1-4.25,0l-94.28-94.29A3,3,0,0,1,5854.98,7234.11Z" transform="translate(-5663 -7329)"/>
      <path id="Rectangle_1_copy-6" data-name="Rectangle 1 copy" class="cls-2" d="M5854.4,7433.9l94.32-94.33a3.012,3.012,0,0,1,4.25,0l94.28,94.29a3,3,0,0,1,0,4.24l-94.33,94.33a3,3,0,0,1-4.24,0l-94.28-94.29A3,3,0,0,1,5854.4,7433.9Z" transform="translate(-5663 -7329)"/>
      <path id="Rectangle_1_copy_2-6" data-name="Rectangle 1 copy 2" class="cls-3" d="M6055.06,7434.19l94.32-94.33a3.012,3.012,0,0,1,4.25,0l94.28,94.29a3,3,0,0,1,0,4.24l-94.32,94.33a3.012,3.012,0,0,1-4.25,0l-94.28-94.29A3,3,0,0,1,6055.06,7434.19Z" transform="translate(-5663 -7329)"/>
    </g>
    <g>
      <g>
        <path class="cls-1" d="M5864.72,7225.18l94.32-94.32a2.994,2.994,0,0,1,4.25,0l94.32,94.32a2.994,2.994,0,0,1,0,4.25l-94.32,94.32a3.012,3.012,0,0,1-4.25,0l-94.32-94.32A3.012,3.012,0,0,1,5864.72,7225.18Z" transform="translate(-5663 -7329)"/>
        <path id="Rectangle_1_copy-7" data-name="Rectangle 1 copy" class="cls-2" d="M5864.18,7425.01l94.32-94.32a3.012,3.012,0,0,1,4.25,0l94.32,94.32a3.012,3.012,0,0,1,0,4.25l-94.32,94.32a3.012,3.012,0,0,1-4.25,0l-94.32-94.32A3.012,3.012,0,0,1,5864.18,7425.01Z" transform="translate(-5663 -7329)"/>
        <path id="Rectangle_1_copy_2-7" data-name="Rectangle 1 copy 2" class="cls-3" d="M6064.88,7425.35l94.33-94.33a3,3,0,0,1,4.24,0l94.32,94.33a2.982,2.982,0,0,1,0,4.24l-94.32,94.33a3,3,0,0,1-4.24,0l-94.33-94.33A3,3,0,0,1,6064.88,7425.35Z" transform="translate(-5663 -7329)"/>
      </g>
      <g>
        <path class="cls-1" d="M5664.96,7424.94l94.33-94.33a3,3,0,0,1,4.24,0l94.33,94.33a3,3,0,0,1,0,4.24l-94.33,94.33a3,3,0,0,1-4.24,0l-94.33-94.33A3,3,0,0,1,5664.96,7424.94Z" transform="translate(-5663 -7329)"/>
        <path id="Rectangle_1_copy-8" data-name="Rectangle 1 copy" class="cls-2" d="M5664.42,7624.77l94.33-94.33a3,3,0,0,1,4.24,0l94.33,94.33a3,3,0,0,1,0,4.24l-94.33,94.33a3,3,0,0,1-4.24,0l-94.33-94.33A3,3,0,0,1,5664.42,7624.77Z" transform="translate(-5663 -7329)"/>
        <path id="Rectangle_1_copy_2-8" data-name="Rectangle 1 copy 2" class="cls-3" d="M5865.13,7625.1l94.32-94.32a2.982,2.982,0,0,1,4.24,0l94.33,94.32a3,3,0,0,1,0,4.24l-94.33,94.33a3,3,0,0,1-4.24,0l-94.32-94.33A2.982,2.982,0,0,1,5865.13,7625.1Z" transform="translate(-5663 -7329)"/>
      </g>
      <g>
        <path class="cls-1" d="M6064.47,7025.43l94.33-94.33a3,3,0,0,1,4.24,0l94.33,94.33a3,3,0,0,1,0,4.24L6163.04,7124a3,3,0,0,1-4.24,0l-94.33-94.33A3,3,0,0,1,6064.47,7025.43Z" transform="translate(-5663 -7329)"/>
        <path id="Rectangle_1_copy-9" data-name="Rectangle 1 copy" class="cls-2" d="M6063.93,7225.26l94.33-94.33a3,3,0,0,1,4.24,0l94.33,94.33a3,3,0,0,1,0,4.24l-94.33,94.33a3,3,0,0,1-4.24,0l-94.33-94.33A3,3,0,0,1,6063.93,7225.26Z" transform="translate(-5663 -7329)"/>
        <path id="Rectangle_1_copy_2-9" data-name="Rectangle 1 copy 2" class="cls-3" d="M6264.63,7225.59l94.33-94.32a3,3,0,0,1,4.24,0l94.33,94.32a3.012,3.012,0,0,1,0,4.25l-94.33,94.32a3,3,0,0,1-4.24,0l-94.33-94.32A3.012,3.012,0,0,1,6264.63,7225.59Z" transform="translate(-5663 -7329)"/>
      </g>
      <g>
        <path class="cls-1" d="M6462.23,6626.86l94.33-94.33a3,3,0,0,1,4.24,0l94.29,94.29a3,3,0,0,1,0,4.24l-94.33,94.33a3,3,0,0,1-4.24,0l-94.29-94.29A3,3,0,0,1,6462.23,6626.86Z" transform="translate(-5663 -7329)"/>
        <path id="Rectangle_1_copy-10" data-name="Rectangle 1 copy" class="cls-2" d="M6461.65,6826.65l94.32-94.33a3.012,3.012,0,0,1,4.25,0l94.28,94.28a3.012,3.012,0,0,1,0,4.25l-94.32,94.32a3.012,3.012,0,0,1-4.25,0l-94.28-94.28A3,3,0,0,1,6461.65,6826.65Z" transform="translate(-5663 -7329)"/>
        <path id="Rectangle_1_copy_2-10" data-name="Rectangle 1 copy 2" class="cls-3" d="M6662.31,6826.94l94.33-94.33a3,3,0,0,1,4.24,0l94.28,94.29a3,3,0,0,1,0,4.24l-94.32,94.33a3.012,3.012,0,0,1-4.25,0l-94.28-94.29A3,3,0,0,1,6662.31,6826.94Z" transform="translate(-5663 -7329)"/>
      </g>
      <g>
        <path class="cls-1" d="M6262.48,6826.61l94.32-94.33a3.012,3.012,0,0,1,4.25,0l94.28,94.29a3,3,0,0,1,0,4.24l-94.32,94.33a3.012,3.012,0,0,1-4.25,0l-94.28-94.29A2.982,2.982,0,0,1,6262.48,6826.61Z" transform="translate(-5663 -7329)"/>
        <path id="Rectangle_1_copy-11" data-name="Rectangle 1 copy" class="cls-2" d="M6261.9,7026.4l94.32-94.33a3,3,0,0,1,4.24,0l94.29,94.29a3,3,0,0,1,0,4.24l-94.33,94.33a3,3,0,0,1-4.24,0l-94.28-94.29A2.982,2.982,0,0,1,6261.9,7026.4Z" transform="translate(-5663 -7329)"/>
        <path id="Rectangle_1_copy_2-11" data-name="Rectangle 1 copy 2" class="cls-3" d="M6462.56,7026.69l94.32-94.32a3,3,0,0,1,4.24,0l94.29,94.28a3,3,0,0,1,0,4.24l-94.33,94.33a3,3,0,0,1-4.24,0l-94.28-94.28A2.994,2.994,0,0,1,6462.56,7026.69Z" transform="translate(-5663 -7329)"/>
      </g>
      <g>
        <path class="cls-1" d="M6661.98,6427.1l94.33-94.32a2.982,2.982,0,0,1,4.24,0l94.29,94.28a3.012,3.012,0,0,1,0,4.25l-94.33,94.32a3,3,0,0,1-4.24,0l-94.29-94.28A3.012,3.012,0,0,1,6661.98,6427.1Z" transform="translate(-5663 -7329)"/>
        <path id="Rectangle_1_copy-12" data-name="Rectangle 1 copy" class="cls-2" d="M6661.4,6626.89l94.33-94.32a2.982,2.982,0,0,1,4.24,0l94.29,94.28a3,3,0,0,1,0,4.24l-94.33,94.33a3,3,0,0,1-4.24,0l-94.29-94.29A3,3,0,0,1,6661.4,6626.89Z" transform="translate(-5663 -7329)"/>
        <path id="Rectangle_1_copy_2-12" data-name="Rectangle 1 copy 2" class="cls-3" d="M6862.06,6627.19l94.33-94.33a3,3,0,0,1,4.24,0l94.29,94.28a3.012,3.012,0,0,1,0,4.25l-94.33,94.32a3,3,0,0,1-4.24,0l-94.29-94.28A3,3,0,0,1,6862.06,6627.19Z" transform="translate(-5663 -7329)"/>
      </g>
    </g>
  </g>
  <g>
    <g>
      <path class="cls-1" d="M6754.4,6930.77l-94.33,94.33a3,3,0,0,0,0,4.24l94.33,94.33a3,3,0,0,0,4.24,0l94.33-94.33a3,3,0,0,0,0-4.24l-94.33-94.33A3,3,0,0,0,6754.4,6930.77Z" transform="translate(-5663 -7329)"/>
      <path id="Rectangle_1_copy-13" data-name="Rectangle 1 copy" class="cls-2" d="M6954.23,6930.23l-94.33,94.32a3.012,3.012,0,0,0,0,4.25l94.33,94.32a3,3,0,0,0,4.24,0l94.33-94.32a3.012,3.012,0,0,0,0-4.25l-94.33-94.32A3,3,0,0,0,6954.23,6930.23Z" transform="translate(-5663 -7329)"/>
      <path id="Rectangle_1_copy_2-13" data-name="Rectangle 1 copy 2" class="cls-3" d="M6954.56,7130.93l-94.32,94.33a3,3,0,0,0,0,4.24l94.32,94.33a3.012,3.012,0,0,0,4.25,0l94.32-94.33a3,3,0,0,0,0-4.24l-94.32-94.33A3.012,3.012,0,0,0,6954.56,7130.93Z" transform="translate(-5663 -7329)"/>
    </g>
    <g>
      <path class="cls-1" d="M6954.15,6731.01l-94.33,94.33a3,3,0,0,0,0,4.24l94.33,94.33a3,3,0,0,0,4.24,0l94.33-94.33a3,3,0,0,0,0-4.24l-94.33-94.33A3,3,0,0,0,6954.15,6731.01Z" transform="translate(-5663 -7329)"/>
      <path id="Rectangle_1_copy-14" data-name="Rectangle 1 copy" class="cls-2" d="M7153.98,6730.47l-94.32,94.33a2.982,2.982,0,0,0,0,4.24l94.32,94.33a3,3,0,0,0,4.24,0l94.33-94.33a3,3,0,0,0,0-4.24l-94.33-94.33A3,3,0,0,0,7153.98,6730.47Z" transform="translate(-5663 -7329)"/>
      <path id="Rectangle_1_copy_2-14" data-name="Rectangle 1 copy 2" class="cls-3" d="M7154.32,6931.18l-94.33,94.32a3.012,3.012,0,0,0,0,4.25l94.33,94.32a3,3,0,0,0,4.24,0l94.33-94.32a3.012,3.012,0,0,0,0-4.25l-94.33-94.32A3,3,0,0,0,7154.32,6931.18Z" transform="translate(-5663 -7329)"/>
    </g>
    <g>
      <path class="cls-1" d="M6554.64,7130.52l-94.32,94.33a2.982,2.982,0,0,0,0,4.24l94.32,94.33a3.012,3.012,0,0,0,4.25,0l94.32-94.33a3,3,0,0,0,0-4.24l-94.32-94.33A3.012,3.012,0,0,0,6554.64,7130.52Z" transform="translate(-5663 -7329)"/>
      <path id="Rectangle_1_copy-15" data-name="Rectangle 1 copy" class="cls-2" d="M6754.47,7129.98l-94.32,94.33a3,3,0,0,0,0,4.24l94.32,94.33a3.012,3.012,0,0,0,4.25,0l94.32-94.33a3,3,0,0,0,0-4.24l-94.32-94.33A3.012,3.012,0,0,0,6754.47,7129.98Z" transform="translate(-5663 -7329)"/>
      <path id="Rectangle_1_copy_2-15" data-name="Rectangle 1 copy 2" class="cls-3" d="M6754.81,7330.69l-94.33,94.32a3,3,0,0,0,0,4.24l94.33,94.33a3,3,0,0,0,4.24,0l94.33-94.33a3,3,0,0,0,0-4.24l-94.33-94.32A2.982,2.982,0,0,0,6754.81,7330.69Z" transform="translate(-5663 -7329)"/>
    </g>
    <g>
      <path class="cls-1" d="M6156.07,7528.28l-94.32,94.33a2.982,2.982,0,0,0,0,4.24l94.28,94.29a3,3,0,0,0,4.24,0l94.33-94.33a3,3,0,0,0,0-4.24l-94.29-94.29A3,3,0,0,0,6156.07,7528.28Z" transform="translate(-5663 -7329)"/>
      <path id="Rectangle_1_copy-16" data-name="Rectangle 1 copy" class="cls-2" d="M6355.86,7527.7l-94.33,94.33a3,3,0,0,0,0,4.24l94.29,94.28a2.982,2.982,0,0,0,4.24,0l94.33-94.32a3,3,0,0,0,0-4.24l-94.29-94.29A3,3,0,0,0,6355.86,7527.7Z" transform="translate(-5663 -7329)"/>
      <path id="Rectangle_1_copy_2-16" data-name="Rectangle 1 copy 2" class="cls-3" d="M6356.15,7728.36l-94.32,94.33a3,3,0,0,0,0,4.24l94.28,94.28a2.994,2.994,0,0,0,4.25,0l94.32-94.32a3,3,0,0,0,0-4.24l-94.28-94.29A3.012,3.012,0,0,0,6356.15,7728.36Z" transform="translate(-5663 -7329)"/>
    </g>
    <g>
      <path class="cls-1" d="M6355.83,7328.53l-94.33,94.33a3,3,0,0,0,0,4.24l94.28,94.28a2.994,2.994,0,0,0,4.25,0l94.32-94.32a2.994,2.994,0,0,0,0-4.25l-94.28-94.28A3,3,0,0,0,6355.83,7328.53Z" transform="translate(-5663 -7329)"/>
      <path id="Rectangle_1_copy-17" data-name="Rectangle 1 copy" class="cls-2" d="M6555.61,7327.95l-94.32,94.32a3.012,3.012,0,0,0,0,4.25l94.28,94.28a3.012,3.012,0,0,0,4.25,0l94.32-94.33a3,3,0,0,0,0-4.24l-94.28-94.28A3.012,3.012,0,0,0,6555.61,7327.95Z" transform="translate(-5663 -7329)"/>
      <path id="Rectangle_1_copy_2-17" data-name="Rectangle 1 copy 2" class="cls-3" d="M6555.91,7528.61l-94.33,94.32a3.012,3.012,0,0,0,0,4.25l94.29,94.28a3,3,0,0,0,4.24,0l94.33-94.32a3.012,3.012,0,0,0,0-4.25l-94.29-94.28A3,3,0,0,0,6555.91,7528.61Z" transform="translate(-5663 -7329)"/>
    </g>
    <g>
      <path class="cls-1" d="M5956.32,7728.04l-94.33,94.32a3.012,3.012,0,0,0,0,4.25l94.29,94.28a3,3,0,0,0,4.24,0l94.33-94.33a3,3,0,0,0,0-4.24l-94.29-94.28A2.982,2.982,0,0,0,5956.32,7728.04Z" transform="translate(-5663 -7329)"/>
      <path id="Rectangle_1_copy-18" data-name="Rectangle 1 copy" class="cls-2" d="M6156.11,7727.45l-94.33,94.33a3,3,0,0,0,0,4.24l94.29,94.29a3,3,0,0,0,4.24,0l94.32-94.33a2.982,2.982,0,0,0,0-4.24l-94.28-94.29A3,3,0,0,0,6156.11,7727.45Z" transform="translate(-5663 -7329)"/>
      <path id="Rectangle_1_copy_2-18" data-name="Rectangle 1 copy 2" class="cls-3" d="M6156.4,7928.12l-94.33,94.32a3,3,0,0,0,0,4.24l94.29,94.29a3,3,0,0,0,4.24,0l94.33-94.33a3,3,0,0,0,0-4.24l-94.29-94.28A2.982,2.982,0,0,0,6156.4,7928.12Z" transform="translate(-5663 -7329)"/>
    </g>
    <g>
      <g>
        <path class="cls-1" d="M5947.39,7737.77l-94.33,94.33a3,3,0,0,0,0,4.24l94.33,94.33a3,3,0,0,0,4.24,0l94.33-94.33a3,3,0,0,0,0-4.24l-94.33-94.33A3,3,0,0,0,5947.39,7737.77Z" transform="translate(-5663 -7329)"/>
        <path id="Rectangle_1_copy-19" data-name="Rectangle 1 copy" class="cls-2" d="M6147.22,7737.23l-94.32,94.33a2.982,2.982,0,0,0,0,4.24l94.32,94.33a3,3,0,0,0,4.24,0l94.33-94.33a3,3,0,0,0,0-4.24l-94.33-94.33A3,3,0,0,0,6147.22,7737.23Z" transform="translate(-5663 -7329)"/>
        <path id="Rectangle_1_copy_2-19" data-name="Rectangle 1 copy 2" class="cls-3" d="M6147.56,7937.94l-94.33,94.32a3.012,3.012,0,0,0,0,4.25l94.33,94.32a3,3,0,0,0,4.24,0l94.33-94.32a3.012,3.012,0,0,0,0-4.25l-94.33-94.32A3,3,0,0,0,6147.56,7937.94Z" transform="translate(-5663 -7329)"/>
      </g>
      <g>
        <path class="cls-1" d="M6147.15,7538.02l-94.33,94.33a3,3,0,0,0,0,4.24l94.33,94.33a3,3,0,0,0,4.24,0l94.33-94.33a3,3,0,0,0,0-4.24l-94.33-94.33A3,3,0,0,0,6147.15,7538.02Z" transform="translate(-5663 -7329)"/>
        <path id="Rectangle_1_copy-20" data-name="Rectangle 1 copy" class="cls-2" d="M6346.98,7537.48l-94.33,94.33a3,3,0,0,0,0,4.24l94.33,94.32a2.982,2.982,0,0,0,4.24,0l94.32-94.32a2.982,2.982,0,0,0,0-4.24l-94.32-94.33A3,3,0,0,0,6346.98,7537.48Z" transform="translate(-5663 -7329)"/>
        <path id="Rectangle_1_copy_2-20" data-name="Rectangle 1 copy 2" class="cls-3" d="M6347.31,7738.18l-94.32,94.33a2.982,2.982,0,0,0,0,4.24l94.32,94.33a3,3,0,0,0,4.24,0l94.33-94.33a3,3,0,0,0,0-4.24l-94.33-94.33A3,3,0,0,0,6347.31,7738.18Z" transform="translate(-5663 -7329)"/>
      </g>
      <g>
        <path class="cls-1" d="M5747.64,7937.53l-94.33,94.32a3.012,3.012,0,0,0,0,4.25l94.33,94.32a2.982,2.982,0,0,0,4.24,0l94.33-94.32a3.012,3.012,0,0,0,0-4.25l-94.33-94.32A3,3,0,0,0,5747.64,7937.53Z" transform="translate(-5663 -7329)"/>
        <path id="Rectangle_1_copy-21" data-name="Rectangle 1 copy" class="cls-2" d="M5947.47,7936.99l-94.33,94.32a3.012,3.012,0,0,0,0,4.25l94.33,94.32a3,3,0,0,0,4.24,0l94.33-94.32a3.012,3.012,0,0,0,0-4.25l-94.33-94.32A3,3,0,0,0,5947.47,7936.99Z" transform="translate(-5663 -7329)"/>
        <path id="Rectangle_1_copy_2-21" data-name="Rectangle 1 copy 2" class="cls-3" d="M5947.8,8137.69l-94.32,94.33a3,3,0,0,0,0,4.24l94.32,94.33a3.012,3.012,0,0,0,4.25,0l94.32-94.33a3,3,0,0,0,0-4.24l-94.32-94.33A3.012,3.012,0,0,0,5947.8,8137.69Z" transform="translate(-5663 -7329)"/>
      </g>
      <g>
        <path class="cls-1" d="M5349.07,8335.29l-94.33,94.32a3.012,3.012,0,0,0,0,4.25l94.29,94.28a3,3,0,0,0,4.24,0l94.33-94.32a3.012,3.012,0,0,0,0-4.25l-94.29-94.28A3,3,0,0,0,5349.07,8335.29Z" transform="translate(-5663 -7329)"/>
        <path id="Rectangle_1_copy-22" data-name="Rectangle 1 copy" class="cls-2" d="M5548.86,8334.71l-94.33,94.32a3,3,0,0,0,0,4.24l94.28,94.29a3.012,3.012,0,0,0,4.25,0l94.32-94.33a3,3,0,0,0,0-4.24l-94.28-94.28A2.982,2.982,0,0,0,5548.86,8334.71Z" transform="translate(-5663 -7329)"/>
        <path id="Rectangle_1_copy_2-22" data-name="Rectangle 1 copy 2" class="cls-3" d="M5549.15,8535.37l-94.33,94.32a3.012,3.012,0,0,0,0,4.25l94.29,94.28a3,3,0,0,0,4.24,0l94.33-94.33a3,3,0,0,0,0-4.24l-94.29-94.28A3,3,0,0,0,5549.15,8535.37Z" transform="translate(-5663 -7329)"/>
      </g>
      <g>
        <path class="cls-1" d="M5548.82,8135.53l-94.33,94.33a3,3,0,0,0,0,4.24l94.29,94.29a3,3,0,0,0,4.24,0l94.33-94.33a3,3,0,0,0,0-4.24l-94.29-94.29A3,3,0,0,0,5548.82,8135.53Z" transform="translate(-5663 -7329)"/>
        <path id="Rectangle_1_copy-23" data-name="Rectangle 1 copy" class="cls-2" d="M5748.61,8134.95l-94.33,94.33a3,3,0,0,0,0,4.24l94.29,94.29a3,3,0,0,0,4.24,0l94.33-94.33a3,3,0,0,0,0-4.24l-94.29-94.29A3,3,0,0,0,5748.61,8134.95Z" transform="translate(-5663 -7329)"/>
        <path id="Rectangle_1_copy_2-23" data-name="Rectangle 1 copy 2" class="cls-3" d="M5748.9,8335.61l-94.32,94.33a2.982,2.982,0,0,0,0,4.24l94.28,94.29a3,3,0,0,0,4.24,0l94.33-94.33a3,3,0,0,0,0-4.24l-94.29-94.29A3,3,0,0,0,5748.9,8335.61Z" transform="translate(-5663 -7329)"/>
      </g>
      <g>
        <path class="cls-1" d="M5149.31,8535.04l-94.32,94.33a2.982,2.982,0,0,0,0,4.24l94.28,94.29a3,3,0,0,0,4.24,0l94.33-94.33a3,3,0,0,0,0-4.24l-94.28-94.29A3.012,3.012,0,0,0,5149.31,8535.04Z" transform="translate(-5663 -7329)"/>
        <path id="Rectangle_1_copy-24" data-name="Rectangle 1 copy" class="cls-2" d="M5349.1,8534.46l-94.32,94.33a2.982,2.982,0,0,0,0,4.24l94.28,94.28a3,3,0,0,0,4.24,0l94.33-94.32a3.012,3.012,0,0,0,0-4.25l-94.29-94.28A3,3,0,0,0,5349.1,8534.46Z" transform="translate(-5663 -7329)"/>
        <path id="Rectangle_1_copy_2-24" data-name="Rectangle 1 copy 2" class="cls-3" d="M5349.39,8735.12l-94.32,94.33a3,3,0,0,0,0,4.24l94.28,94.28a2.994,2.994,0,0,0,4.25,0l94.32-94.32a3,3,0,0,0,0-4.24l-94.28-94.29A3.012,3.012,0,0,0,5349.39,8735.12Z" transform="translate(-5663 -7329)"/>
      </g>
    </g>
  </g>
  <g>
    <g>
      <path class="cls-1" d="M5660.86,8635.55l94.35-94.34a2.982,2.982,0,0,1,4.24,0l94.4,94.4a2.982,2.982,0,0,1,0,4.24l-94.34,94.35a3,3,0,0,1-4.24,0l-94.41-94.41A3,3,0,0,1,5660.86,8635.55Z" transform="translate(-5663 -7329)"/>
      <path id="Rectangle_1_copy-25" data-name="Rectangle 1 copy" class="cls-2" d="M5660.38,8835.48l94.35-94.35a3,3,0,0,1,4.24,0l94.4,94.41a3,3,0,0,1,0,4.24l-94.34,94.34a3,3,0,0,1-4.24,0l-94.41-94.4A3,3,0,0,1,5660.38,8835.48Z" transform="translate(-5663 -7329)"/>
      <path id="Rectangle_1_copy_2-25" data-name="Rectangle 1 copy 2" class="cls-3" d="M5861.18,8835.87l94.35-94.34a3,3,0,0,1,4.24,0l94.4,94.4a3,3,0,0,1,0,4.24l-94.34,94.35a3,3,0,0,1-4.24,0l-94.41-94.41A3,3,0,0,1,5861.18,8835.87Z" transform="translate(-5663 -7329)"/>
    </g>
    <g>
      <path class="cls-1" d="M5461.08,8835.34l94.34-94.35a3,3,0,0,1,4.24,0l94.41,94.41a3,3,0,0,1,0,4.24l-94.35,94.34a2.982,2.982,0,0,1-4.24,0l-94.4-94.4A2.982,2.982,0,0,1,5461.08,8835.34Z" transform="translate(-5663 -7329)"/>
      <path id="Rectangle_1_copy-26" data-name="Rectangle 1 copy" class="cls-2" d="M5460.6,9035.26l94.34-94.34a3,3,0,0,1,4.24,0l94.41,94.4a3.012,3.012,0,0,1,0,4.25l-94.35,94.34a3,3,0,0,1-4.24,0l-94.4-94.4A3.012,3.012,0,0,1,5460.6,9035.26Z" transform="translate(-5663 -7329)"/>
      <path id="Rectangle_1_copy_2-26" data-name="Rectangle 1 copy 2" class="cls-3" d="M5661.4,9035.66l94.34-94.34a3,3,0,0,1,4.24,0l94.4,94.4a2.982,2.982,0,0,1,0,4.24l-94.34,94.35a3,3,0,0,1-4.24,0l-94.4-94.41A2.982,2.982,0,0,1,5661.4,9035.66Z" transform="translate(-5663 -7329)"/>
    </g>
    <g>
      <path class="cls-1" d="M5860.65,8435.76l94.35-94.34a3,3,0,0,1,4.24,0l94.4,94.4a3,3,0,0,1,0,4.24l-94.34,94.35a3,3,0,0,1-4.24,0L5860.65,8440A3,3,0,0,1,5860.65,8435.76Z" transform="translate(-5663 -7329)"/>
      <path id="Rectangle_1_copy-27" data-name="Rectangle 1 copy" class="cls-2" d="M5860.17,8635.69l94.35-94.35a3,3,0,0,1,4.24,0l94.4,94.41a3,3,0,0,1,0,4.24l-94.34,94.34a3,3,0,0,1-4.24,0l-94.41-94.4A3,3,0,0,1,5860.17,8635.69Z" transform="translate(-5663 -7329)"/>
      <path id="Rectangle_1_copy_2-27" data-name="Rectangle 1 copy 2" class="cls-3" d="M6060.97,8636.08l94.34-94.34a3.012,3.012,0,0,1,4.25,0l94.4,94.4a3.012,3.012,0,0,1,0,4.25l-94.34,94.34a3,3,0,0,1-4.24,0l-94.41-94.4A3.012,3.012,0,0,1,6060.97,8636.08Z" transform="translate(-5663 -7329)"/>
    </g>
    <g>
      <path class="cls-1" d="M6258.48,8037.12l94.34-94.34a3.012,3.012,0,0,1,4.25,0l94.36,94.36a3,3,0,0,1,0,4.24l-94.34,94.35a3.012,3.012,0,0,1-4.25,0l-94.36-94.37A3,3,0,0,1,6258.48,8037.12Z" transform="translate(-5663 -7329)"/>
      <path id="Rectangle_1_copy-28" data-name="Rectangle 1 copy" class="cls-2" d="M6257.96,8237.01l94.34-94.35a3,3,0,0,1,4.24,0l94.37,94.36a3.012,3.012,0,0,1,0,4.25l-94.35,94.34a3,3,0,0,1-4.24,0l-94.36-94.36A3,3,0,0,1,6257.96,8237.01Z" transform="translate(-5663 -7329)"/>
      <path id="Rectangle_1_copy_2-28" data-name="Rectangle 1 copy 2" class="cls-3" d="M6458.72,8237.36l94.34-94.34a3,3,0,0,1,4.24,0l94.36,94.36a3,3,0,0,1,0,4.24l-94.34,94.34a2.982,2.982,0,0,1-4.24,0l-94.36-94.36A2.982,2.982,0,0,1,6458.72,8237.36Z" transform="translate(-5663 -7329)"/>
    </g>
    <g>
      <path class="cls-1" d="M6058.69,8236.91l94.35-94.34a2.982,2.982,0,0,1,4.24,0l94.36,94.36a3,3,0,0,1,0,4.24l-94.34,94.35a3.012,3.012,0,0,1-4.25,0l-94.36-94.37A3,3,0,0,1,6058.69,8236.91Z" transform="translate(-5663 -7329)"/>
      <path id="Rectangle_1_copy-29" data-name="Rectangle 1 copy" class="cls-2" d="M6058.17,8436.79l94.34-94.34a3.012,3.012,0,0,1,4.25,0l94.36,94.36a3.012,3.012,0,0,1,0,4.25l-94.34,94.34a3.012,3.012,0,0,1-4.25,0l-94.36-94.36A3.012,3.012,0,0,1,6058.17,8436.79Z" transform="translate(-5663 -7329)"/>
      <path id="Rectangle_1_copy_2-29" data-name="Rectangle 1 copy 2" class="cls-3" d="M6258.93,8437.15l94.34-94.34a2.982,2.982,0,0,1,4.24,0l94.37,94.36a3,3,0,0,1,0,4.24l-94.35,94.34a3,3,0,0,1-4.24,0l-94.36-94.36A3,3,0,0,1,6258.93,8437.15Z" transform="translate(-5663 -7329)"/>
    </g>
    <g>
      <path class="cls-1" d="M6458.27,7837.33l94.34-94.34a3,3,0,0,1,4.24,0l94.37,94.36a3.012,3.012,0,0,1,0,4.25l-94.35,94.34a3,3,0,0,1-4.24,0l-94.36-94.36A3.012,3.012,0,0,1,6458.27,7837.33Z" transform="translate(-5663 -7329)"/>
      <path id="Rectangle_1_copy-30" data-name="Rectangle 1 copy" class="cls-2" d="M6457.75,8037.22l94.34-94.35a3,3,0,0,1,4.24,0l94.36,94.37a2.982,2.982,0,0,1,0,4.24l-94.34,94.34a3,3,0,0,1-4.24,0l-94.36-94.36A3,3,0,0,1,6457.75,8037.22Z" transform="translate(-5663 -7329)"/>
      <path id="Rectangle_1_copy_2-30" data-name="Rectangle 1 copy 2" class="cls-3" d="M6658.5,8037.57l94.35-94.34a3,3,0,0,1,4.24,0l94.36,94.36a3,3,0,0,1,0,4.24l-94.34,94.35a3,3,0,0,1-4.24,0l-94.37-94.37A3,3,0,0,1,6658.5,8037.57Z" transform="translate(-5663 -7329)"/>
    </g>
    <g>
      <g>
        <path class="cls-1" d="M6468.01,7828.41l94.34-94.35a3,3,0,0,1,4.24,0l94.41,94.41a3,3,0,0,1,0,4.24l-94.35,94.34a3,3,0,0,1-4.24,0l-94.4-94.4A3,3,0,0,1,6468.01,7828.41Z" transform="translate(-5663 -7329)"/>
        <path id="Rectangle_1_copy-31" data-name="Rectangle 1 copy" class="cls-2" d="M6467.53,8028.33l94.34-94.34a3,3,0,0,1,4.24,0l94.41,94.4a3,3,0,0,1,0,4.24l-94.35,94.35a3,3,0,0,1-4.24,0l-94.4-94.41A3,3,0,0,1,6467.53,8028.33Z" transform="translate(-5663 -7329)"/>
        <path id="Rectangle_1_copy_2-31" data-name="Rectangle 1 copy 2" class="cls-3" d="M6668.33,8028.73l94.34-94.34a2.982,2.982,0,0,1,4.24,0l94.41,94.4a3,3,0,0,1,0,4.24l-94.35,94.34a2.982,2.982,0,0,1-4.24,0l-94.4-94.4A3,3,0,0,1,6668.33,8028.73Z" transform="translate(-5663 -7329)"/>
      </g>
      <g>
        <path class="cls-1" d="M6268.22,8028.19l94.34-94.34a3.012,3.012,0,0,1,4.25,0l94.4,94.4a3.012,3.012,0,0,1,0,4.25l-94.34,94.34a3.012,3.012,0,0,1-4.25,0l-94.4-94.4A3.012,3.012,0,0,1,6268.22,8028.19Z" transform="translate(-5663 -7329)"/>
        <path id="Rectangle_1_copy-32" data-name="Rectangle 1 copy" class="cls-2" d="M6267.74,8228.12l94.34-94.34a3.012,3.012,0,0,1,4.25,0l94.4,94.4a3,3,0,0,1,0,4.24l-94.34,94.35a3.012,3.012,0,0,1-4.25,0l-94.4-94.41A3,3,0,0,1,6267.74,8228.12Z" transform="translate(-5663 -7329)"/>
        <path id="Rectangle_1_copy_2-32" data-name="Rectangle 1 copy 2" class="cls-3" d="M6468.54,8228.52l94.34-94.35a3.012,3.012,0,0,1,4.25,0l94.4,94.41a3,3,0,0,1,0,4.24l-94.34,94.34a3.012,3.012,0,0,1-4.25,0l-94.4-94.4A3,3,0,0,1,6468.54,8228.52Z" transform="translate(-5663 -7329)"/>
      </g>
      <g>
        <path class="cls-1" d="M6667.8,7628.62l94.34-94.35a3,3,0,0,1,4.24,0l94.41,94.41a3,3,0,0,1,0,4.24l-94.35,94.34a2.982,2.982,0,0,1-4.24,0l-94.4-94.4A2.982,2.982,0,0,1,6667.8,7628.62Z" transform="translate(-5663 -7329)"/>
        <path id="Rectangle_1_copy-33" data-name="Rectangle 1 copy" class="cls-2" d="M6667.32,7828.54l94.34-94.34a3,3,0,0,1,4.24,0l94.41,94.4a3.012,3.012,0,0,1,0,4.25l-94.35,94.34a3,3,0,0,1-4.24,0l-94.4-94.4A2.994,2.994,0,0,1,6667.32,7828.54Z" transform="translate(-5663 -7329)"/>
        <path id="Rectangle_1_copy_2-33" data-name="Rectangle 1 copy 2" class="cls-3" d="M6868.12,7828.94l94.34-94.34a3,3,0,0,1,4.24,0l94.4,94.4a2.982,2.982,0,0,1,0,4.24l-94.34,94.35a3,3,0,0,1-4.24,0l-94.4-94.41A2.982,2.982,0,0,1,6868.12,7828.94Z" transform="translate(-5663 -7329)"/>
      </g>
      <g>
        <path class="cls-1" d="M7065.62,7229.98l94.35-94.35a3,3,0,0,1,4.24,0l94.36,94.37a3,3,0,0,1,0,4.24l-94.34,94.34a2.982,2.982,0,0,1-4.24,0l-94.37-94.36A3,3,0,0,1,7065.62,7229.98Z" transform="translate(-5663 -7329)"/>
        <path id="Rectangle_1_copy-34" data-name="Rectangle 1 copy" class="cls-2" d="M7065.1,7429.86l94.35-94.34a3,3,0,0,1,4.24,0l94.36,94.36a3,3,0,0,1,0,4.24l-94.34,94.35a3.012,3.012,0,0,1-4.25,0l-94.36-94.37A3,3,0,0,1,7065.1,7429.86Z" transform="translate(-5663 -7329)"/>
        <path id="Rectangle_1_copy_2-34" data-name="Rectangle 1 copy 2" class="cls-3" d="M7265.86,7430.22l94.34-94.35a3.012,3.012,0,0,1,4.25,0l94.36,94.37a3,3,0,0,1,0,4.24l-94.35,94.34a3,3,0,0,1-4.24,0l-94.36-94.36A3,3,0,0,1,7265.86,7430.22Z" transform="translate(-5663 -7329)"/>
      </g>
      <g>
        <path class="cls-1" d="M6865.83,7429.77l94.35-94.35a3,3,0,0,1,4.24,0l94.36,94.37a2.982,2.982,0,0,1,0,4.24l-94.34,94.34a3,3,0,0,1-4.24,0l-94.37-94.36A3,3,0,0,1,6865.83,7429.77Z" transform="translate(-5663 -7329)"/>
        <path id="Rectangle_1_copy-35" data-name="Rectangle 1 copy" class="cls-2" d="M6865.31,7629.65l94.35-94.34a3,3,0,0,1,4.24,0l94.36,94.36a3,3,0,0,1,0,4.24l-94.34,94.34a2.982,2.982,0,0,1-4.24,0l-94.37-94.36A3,3,0,0,1,6865.31,7629.65Z" transform="translate(-5663 -7329)"/>
        <path id="Rectangle_1_copy_2-35" data-name="Rectangle 1 copy 2" class="cls-3" d="M7066.07,7630l94.34-94.34a3.012,3.012,0,0,1,4.25,0l94.36,94.36a3.012,3.012,0,0,1,0,4.25l-94.34,94.34a3.012,3.012,0,0,1-4.25,0l-94.36-94.36A3.012,3.012,0,0,1,7066.07,7630Z" transform="translate(-5663 -7329)"/>
      </g>
      <g>
        <path class="cls-1" d="M7265.41,7030.19l94.34-94.34a2.994,2.994,0,0,1,4.25,0l94.36,94.36a3,3,0,0,1,0,4.24l-94.34,94.35a3.012,3.012,0,0,1-4.25,0l-94.36-94.37A3,3,0,0,1,7265.41,7030.19Z" transform="translate(-5663 -7329)"/>
        <path id="Rectangle_1_copy-36" data-name="Rectangle 1 copy" class="cls-2" d="M7264.89,7230.07l94.34-94.34a3.012,3.012,0,0,1,4.25,0l94.36,94.36a3.012,3.012,0,0,1,0,4.25l-94.34,94.34a3.012,3.012,0,0,1-4.25,0l-94.36-94.36A3.012,3.012,0,0,1,7264.89,7230.07Z" transform="translate(-5663 -7329)"/>
        <path id="Rectangle_1_copy_2-36" data-name="Rectangle 1 copy 2" class="cls-3" d="M7465.65,7230.43l94.34-94.34a2.982,2.982,0,0,1,4.24,0l94.37,94.36a3,3,0,0,1,0,4.24l-94.35,94.34a3,3,0,0,1-4.24,0l-94.36-94.36A3,3,0,0,1,7465.65,7230.43Z" transform="translate(-5663 -7329)"/>
      </g>
    </g>
  </g>
  <g>
    <g>
      <path class="cls-1" d="M7358.02,7534.12l-94.34,94.35a3,3,0,0,0,0,4.24l94.4,94.4a2.994,2.994,0,0,0,4.25,0l94.34-94.34a3,3,0,0,0,0-4.24l-94.4-94.41A3.012,3.012,0,0,0,7358.02,7534.12Z" transform="translate(-5663 -7329)"/>
      <path id="Rectangle_1_copy-37" data-name="Rectangle 1 copy" class="cls-2" d="M7557.95,7533.64l-94.34,94.35a2.982,2.982,0,0,0,0,4.24l94.4,94.4a3,3,0,0,0,4.24,0l94.34-94.34a2.982,2.982,0,0,0,0-4.24l-94.4-94.41A3,3,0,0,0,7557.95,7533.64Z" transform="translate(-5663 -7329)"/>
      <path id="Rectangle_1_copy_2-37" data-name="Rectangle 1 copy 2" class="cls-3" d="M7558.35,7734.44L7464,7828.79a3,3,0,0,0,0,4.24l94.41,94.4a3,3,0,0,0,4.24,0l94.34-94.34a3,3,0,0,0,0-4.24l-94.4-94.41A3,3,0,0,0,7558.35,7734.44Z" transform="translate(-5663 -7329)"/>
    </g>
    <g>
      <path class="cls-1" d="M7557.81,7334.33l-94.34,94.35a3,3,0,0,0,0,4.24l94.4,94.41a3,3,0,0,0,4.24,0l94.35-94.35a3,3,0,0,0,0-4.24l-94.41-94.41A3,3,0,0,0,7557.81,7334.33Z" transform="translate(-5663 -7329)"/>
      <path id="Rectangle_1_copy-38" data-name="Rectangle 1 copy" class="cls-2" d="M7757.74,7333.86l-94.35,94.34a3,3,0,0,0,0,4.24l94.41,94.4a2.982,2.982,0,0,0,4.24,0l94.34-94.34a3,3,0,0,0,0-4.24l-94.4-94.4A2.982,2.982,0,0,0,7757.74,7333.86Z" transform="translate(-5663 -7329)"/>
      <path id="Rectangle_1_copy_2-38" data-name="Rectangle 1 copy 2" class="cls-3" d="M7758.13,7534.66L7663.79,7629a3,3,0,0,0,0,4.24l94.4,94.4a2.994,2.994,0,0,0,4.25,0l94.34-94.34a3,3,0,0,0,0-4.24l-94.4-94.4A2.994,2.994,0,0,0,7758.13,7534.66Z" transform="translate(-5663 -7329)"/>
    </g>
    <g>
      <path class="cls-1" d="M7158.24,7733.91l-94.35,94.34a3.012,3.012,0,0,0,0,4.25l94.41,94.4a3,3,0,0,0,4.24,0l94.34-94.34a3,3,0,0,0,0-4.24l-94.4-94.41A3,3,0,0,0,7158.24,7733.91Z" transform="translate(-5663 -7329)"/>
      <path id="Rectangle_1_copy-39" data-name="Rectangle 1 copy" class="cls-2" d="M7358.16,7733.43l-94.34,94.34a3.012,3.012,0,0,0,0,4.25l94.4,94.4a3,3,0,0,0,4.24,0l94.35-94.34a3,3,0,0,0,0-4.24l-94.41-94.41A3,3,0,0,0,7358.16,7733.43Z" transform="translate(-5663 -7329)"/>
      <path id="Rectangle_1_copy_2-39" data-name="Rectangle 1 copy 2" class="cls-3" d="M7358.56,7934.23l-94.34,94.34a2.994,2.994,0,0,0,0,4.25l94.4,94.4a3,3,0,0,0,4.24,0l94.34-94.34a2.994,2.994,0,0,0,0-4.25l-94.4-94.4A3,3,0,0,0,7358.56,7934.23Z" transform="translate(-5663 -7329)"/>
    </g>
    <g>
      <path class="cls-1" d="M6759.6,8131.74l-94.35,94.34a3.012,3.012,0,0,0,0,4.25l94.36,94.36a3.012,3.012,0,0,0,4.25,0l94.34-94.35a3,3,0,0,0,0-4.24l-94.36-94.36A3,3,0,0,0,6759.6,8131.74Z" transform="translate(-5663 -7329)"/>
      <path id="Rectangle_1_copy-40" data-name="Rectangle 1 copy" class="cls-2" d="M6959.48,8131.22l-94.34,94.34a3,3,0,0,0,0,4.24l94.36,94.37a3,3,0,0,0,4.24,0l94.34-94.35a2.982,2.982,0,0,0,0-4.24l-94.36-94.36A3,3,0,0,0,6959.48,8131.22Z" transform="translate(-5663 -7329)"/>
      <path id="Rectangle_1_copy_2-40" data-name="Rectangle 1 copy 2" class="cls-3" d="M6959.83,8331.98l-94.34,94.34a3,3,0,0,0,0,4.24l94.36,94.36a3.012,3.012,0,0,0,4.25,0l94.34-94.34a3,3,0,0,0,0-4.24l-94.36-94.36A2.994,2.994,0,0,0,6959.83,8331.98Z" transform="translate(-5663 -7329)"/>
    </g>
    <g>
      <path class="cls-1" d="M6959.38,7931.95l-94.34,94.34a3.012,3.012,0,0,0,0,4.25l94.36,94.36a3.012,3.012,0,0,0,4.25,0l94.34-94.34a3.012,3.012,0,0,0,0-4.25l-94.36-94.36A3.012,3.012,0,0,0,6959.38,7931.95Z" transform="translate(-5663 -7329)"/>
      <path id="Rectangle_1_copy-41" data-name="Rectangle 1 copy" class="cls-2" d="M7159.27,7931.43l-94.35,94.34a3.012,3.012,0,0,0,0,4.25l94.37,94.36a3,3,0,0,0,4.24,0l94.34-94.35a3,3,0,0,0,0-4.24l-94.36-94.36A3,3,0,0,0,7159.27,7931.43Z" transform="translate(-5663 -7329)"/>
      <path id="Rectangle_1_copy_2-41" data-name="Rectangle 1 copy 2" class="cls-3" d="M7159.62,8132.19l-94.34,94.34a3,3,0,0,0,0,4.24l94.36,94.36a2.982,2.982,0,0,0,4.24,0l94.35-94.34a3,3,0,0,0,0-4.24l-94.37-94.36A3,3,0,0,0,7159.62,8132.19Z" transform="translate(-5663 -7329)"/>
    </g>
    <g>
      <path class="cls-1" d="M6559.81,8331.53l-94.35,94.34a3,3,0,0,0,0,4.24l94.37,94.37a3,3,0,0,0,4.24,0l94.34-94.35a2.982,2.982,0,0,0,0-4.24l-94.36-94.36A2.982,2.982,0,0,0,6559.81,8331.53Z" transform="translate(-5663 -7329)"/>
      <path id="Rectangle_1_copy-42" data-name="Rectangle 1 copy" class="cls-2" d="M6759.69,8331.01l-94.34,94.34a3,3,0,0,0,0,4.24l94.36,94.36a2.982,2.982,0,0,0,4.24,0l94.35-94.34a3,3,0,0,0,0-4.24l-94.37-94.36A2.982,2.982,0,0,0,6759.69,8331.01Z" transform="translate(-5663 -7329)"/>
      <path id="Rectangle_1_copy_2-42" data-name="Rectangle 1 copy 2" class="cls-3" d="M6760.05,8531.76l-94.35,94.35a3,3,0,0,0,0,4.24l94.37,94.36a3,3,0,0,0,4.24,0l94.34-94.34a3,3,0,0,0,0-4.24l-94.36-94.37A3,3,0,0,0,6760.05,8531.76Z" transform="translate(-5663 -7329)"/>
    </g>
    <g>
      <g>
        <path class="cls-1" d="M6550.88,8341.27l-94.34,94.34a2.982,2.982,0,0,0,0,4.24l94.4,94.41a3,3,0,0,0,4.24,0l94.35-94.35a3,3,0,0,0,0-4.24l-94.41-94.4A2.982,2.982,0,0,0,6550.88,8341.27Z" transform="translate(-5663 -7329)"/>
        <path id="Rectangle_1_copy-43" data-name="Rectangle 1 copy" class="cls-2" d="M6750.81,8340.79l-94.35,94.34a3,3,0,0,0,0,4.24l94.41,94.41a3,3,0,0,0,4.24,0l94.34-94.35a3,3,0,0,0,0-4.24l-94.4-94.4A3,3,0,0,0,6750.81,8340.79Z" transform="translate(-5663 -7329)"/>
        <path id="Rectangle_1_copy_2-43" data-name="Rectangle 1 copy 2" class="cls-3" d="M6751.2,8541.59l-94.34,94.34a3,3,0,0,0,0,4.24l94.4,94.41a3.012,3.012,0,0,0,4.25,0l94.34-94.35a3,3,0,0,0,0-4.24l-94.41-94.4A3,3,0,0,0,6751.2,8541.59Z" transform="translate(-5663 -7329)"/>
      </g>
      <g>
        <path class="cls-1" d="M6750.67,8141.48l-94.35,94.34a3.012,3.012,0,0,0,0,4.25l94.41,94.4a3,3,0,0,0,4.24,0l94.35-94.34a3.012,3.012,0,0,0,0-4.25l-94.41-94.4A3,3,0,0,0,6750.67,8141.48Z" transform="translate(-5663 -7329)"/>
        <path id="Rectangle_1_copy-44" data-name="Rectangle 1 copy" class="cls-2" d="M6950.59,8141l-94.34,94.34a3.012,3.012,0,0,0,0,4.25l94.4,94.4a3.012,3.012,0,0,0,4.25,0l94.34-94.34a3.012,3.012,0,0,0,0-4.25l-94.4-94.4A3.012,3.012,0,0,0,6950.59,8141Z" transform="translate(-5663 -7329)"/>
        <path id="Rectangle_1_copy_2-44" data-name="Rectangle 1 copy 2" class="cls-3" d="M6950.99,8341.8l-94.34,94.34a3,3,0,0,0,0,4.24l94.4,94.41a3,3,0,0,0,4.24,0l94.35-94.35a3,3,0,0,0,0-4.24l-94.41-94.4A3,3,0,0,0,6950.99,8341.8Z" transform="translate(-5663 -7329)"/>
      </g>
      <g>
        <path class="cls-1" d="M6351.09,8541.05l-94.34,94.35a3,3,0,0,0,0,4.24l94.4,94.41a3,3,0,0,0,4.24,0l94.35-94.35a3,3,0,0,0,0-4.24l-94.41-94.41A3,3,0,0,0,6351.09,8541.05Z" transform="translate(-5663 -7329)"/>
        <path id="Rectangle_1_copy-45" data-name="Rectangle 1 copy" class="cls-2" d="M6551.02,8540.58l-94.35,94.34a3,3,0,0,0,0,4.24l94.41,94.4a2.982,2.982,0,0,0,4.24,0l94.34-94.34a3,3,0,0,0,0-4.24l-94.4-94.4A2.982,2.982,0,0,0,6551.02,8540.58Z" transform="translate(-5663 -7329)"/>
        <path id="Rectangle_1_copy_2-45" data-name="Rectangle 1 copy 2" class="cls-3" d="M6551.41,8741.38l-94.34,94.34a3,3,0,0,0,0,4.24l94.4,94.4a2.994,2.994,0,0,0,4.25,0l94.34-94.34a3,3,0,0,0,0-4.24l-94.4-94.4A2.994,2.994,0,0,0,6551.41,8741.38Z" transform="translate(-5663 -7329)"/>
      </g>
      <g>
        <path class="cls-1" d="M5952.45,8938.88l-94.34,94.35a3,3,0,0,0,0,4.24l94.36,94.36a3,3,0,0,0,4.24,0l94.35-94.34a3,3,0,0,0,0-4.24l-94.37-94.37A3,3,0,0,0,5952.45,8938.88Z" transform="translate(-5663 -7329)"/>
        <path id="Rectangle_1_copy-46" data-name="Rectangle 1 copy" class="cls-2" d="M6152.34,8938.36l-94.35,94.34a3.012,3.012,0,0,0,0,4.25l94.37,94.36a3,3,0,0,0,4.24,0l94.34-94.34a3.012,3.012,0,0,0,0-4.25l-94.36-94.36A3,3,0,0,0,6152.34,8938.36Z" transform="translate(-5663 -7329)"/>
        <path id="Rectangle_1_copy_2-46" data-name="Rectangle 1 copy 2" class="cls-3" d="M6152.69,9139.12l-94.34,94.34a3,3,0,0,0,0,4.24l94.36,94.37a3,3,0,0,0,4.24,0l94.35-94.35a3,3,0,0,0,0-4.24l-94.37-94.36A3,3,0,0,0,6152.69,9139.12Z" transform="translate(-5663 -7329)"/>
      </g>
      <g>
        <path class="cls-1" d="M6152.24,8739.09l-94.34,94.35a2.982,2.982,0,0,0,0,4.24l94.36,94.36a2.982,2.982,0,0,0,4.24,0l94.35-94.34a3,3,0,0,0,0-4.24l-94.37-94.37A3,3,0,0,0,6152.24,8739.09Z" transform="translate(-5663 -7329)"/>
        <path id="Rectangle_1_copy-47" data-name="Rectangle 1 copy" class="cls-2" d="M6352.12,8738.57l-94.34,94.35a3,3,0,0,0,0,4.24l94.36,94.36a3.012,3.012,0,0,0,4.25,0l94.34-94.34a3,3,0,0,0,0-4.24l-94.36-94.37A3.012,3.012,0,0,0,6352.12,8738.57Z" transform="translate(-5663 -7329)"/>
        <path id="Rectangle_1_copy_2-47" data-name="Rectangle 1 copy 2" class="cls-3" d="M6352.48,8939.33l-94.34,94.34a2.994,2.994,0,0,0,0,4.25l94.36,94.36a3,3,0,0,0,4.24,0l94.34-94.34a3.012,3.012,0,0,0,0-4.25l-94.36-94.36A3,3,0,0,0,6352.48,8939.33Z" transform="translate(-5663 -7329)"/>
      </g>
      <g>
        <path class="cls-1" d="M5752.66,9138.67l-94.34,94.34a3.012,3.012,0,0,0,0,4.25l94.36,94.36a3.012,3.012,0,0,0,4.25,0l94.34-94.34a3.012,3.012,0,0,0,0-4.25l-94.36-94.36A3.012,3.012,0,0,0,5752.66,9138.67Z" transform="translate(-5663 -7329)"/>
        <path id="Rectangle_1_copy-48" data-name="Rectangle 1 copy" class="cls-2" d="M5952.55,9138.15l-94.35,94.34a3.012,3.012,0,0,0,0,4.25l94.37,94.36a3,3,0,0,0,4.24,0l94.34-94.35a3,3,0,0,0,0-4.24l-94.36-94.36A3,3,0,0,0,5952.55,9138.15Z" transform="translate(-5663 -7329)"/>
        <path id="Rectangle_1_copy_2-48" data-name="Rectangle 1 copy 2" class="cls-3" d="M5952.9,9338.91l-94.34,94.34a3,3,0,0,0,0,4.24l94.36,94.36a2.982,2.982,0,0,0,4.24,0l94.35-94.34a3,3,0,0,0,0-4.24l-94.36-94.36A3.012,3.012,0,0,0,5952.9,9338.91Z" transform="translate(-5663 -7329)"/>
      </g>
    </g>
  </g>
  <g>
    <g>
      <path class="cls-1" d="M6258.23,9232.71l94.33-94.33a3,3,0,0,1,4.24,0l94.33,94.33a3,3,0,0,1,0,4.24l-94.33,94.33a3,3,0,0,1-4.24,0l-94.33-94.33A3,3,0,0,1,6258.23,9232.71Z" transform="translate(-5663 -7329)"/>
      <path id="Rectangle_1_copy-49" data-name="Rectangle 1 copy" class="cls-2" d="M6257.69,9432.54l94.33-94.33a3,3,0,0,1,4.24,0l94.33,94.33a3,3,0,0,1,0,4.24l-94.33,94.33a3,3,0,0,1-4.24,0l-94.33-94.33A3,3,0,0,1,6257.69,9432.54Z" transform="translate(-5663 -7329)"/>
      <path id="Rectangle_1_copy_2-49" data-name="Rectangle 1 copy 2" class="cls-3" d="M6458.4,9432.87l94.32-94.32a3,3,0,0,1,4.24,0l94.33,94.32a3.012,3.012,0,0,1,0,4.25l-94.33,94.32a3,3,0,0,1-4.24,0l-94.32-94.32A2.994,2.994,0,0,1,6458.4,9432.87Z" transform="translate(-5663 -7329)"/>
    </g>
    <g>
      <path class="cls-1" d="M6058.48,9432.46l94.32-94.32a2.994,2.994,0,0,1,4.25,0l94.32,94.32a2.982,2.982,0,0,1,0,4.24l-94.32,94.33a3.012,3.012,0,0,1-4.25,0l-94.32-94.33A3,3,0,0,1,6058.48,9432.46Z" transform="translate(-5663 -7329)"/>
      <path id="Rectangle_1_copy-50" data-name="Rectangle 1 copy" class="cls-2" d="M6057.94,9632.29l94.32-94.32a3.012,3.012,0,0,1,4.25,0l94.32,94.32a3.012,3.012,0,0,1,0,4.25l-94.32,94.32a3.012,3.012,0,0,1-4.25,0l-94.32-94.32A3.012,3.012,0,0,1,6057.94,9632.29Z" transform="translate(-5663 -7329)"/>
      <path id="Rectangle_1_copy_2-50" data-name="Rectangle 1 copy 2" class="cls-3" d="M6258.64,9632.63l94.33-94.33a3,3,0,0,1,4.24,0l94.33,94.33a3,3,0,0,1,0,4.24l-94.33,94.33a3,3,0,0,1-4.24,0l-94.33-94.33A3,3,0,0,1,6258.64,9632.63Z" transform="translate(-5663 -7329)"/>
    </g>
    <g>
      <path class="cls-1" d="M6457.99,9032.95l94.32-94.32a3.012,3.012,0,0,1,4.25,0l94.32,94.32a3.012,3.012,0,0,1,0,4.25l-94.32,94.32a2.994,2.994,0,0,1-4.25,0l-94.32-94.32A2.994,2.994,0,0,1,6457.99,9032.95Z" transform="translate(-5663 -7329)"/>
      <path id="Rectangle_1_copy-51" data-name="Rectangle 1 copy" class="cls-2" d="M6457.45,9232.78l94.32-94.32a3,3,0,0,1,4.24,0l94.33,94.32a3.012,3.012,0,0,1,0,4.25l-94.33,94.32a3,3,0,0,1-4.24,0l-94.32-94.32A2.994,2.994,0,0,1,6457.45,9232.78Z" transform="translate(-5663 -7329)"/>
      <path id="Rectangle_1_copy_2-51" data-name="Rectangle 1 copy 2" class="cls-3" d="M6658.15,9233.12l94.32-94.33a3.012,3.012,0,0,1,4.25,0l94.32,94.33a3,3,0,0,1,0,4.24l-94.32,94.33a3.012,3.012,0,0,1-4.25,0l-94.32-94.33A3,3,0,0,1,6658.15,9233.12Z" transform="translate(-5663 -7329)"/>
    </g>
    <g>
      <path class="cls-1" d="M6855.75,8634.38l94.32-94.32a2.994,2.994,0,0,1,4.25,0l94.28,94.28a3,3,0,0,1,0,4.24l-94.33,94.33a3,3,0,0,1-4.24,0l-94.28-94.28A2.994,2.994,0,0,1,6855.75,8634.38Z" transform="translate(-5663 -7329)"/>
      <path id="Rectangle_1_copy-52" data-name="Rectangle 1 copy" class="cls-2" d="M6855.16,8834.17l94.33-94.32a2.982,2.982,0,0,1,4.24,0l94.29,94.28a3,3,0,0,1,0,4.24l-94.33,94.33a3,3,0,0,1-4.24,0l-94.29-94.29A3,3,0,0,1,6855.16,8834.17Z" transform="translate(-5663 -7329)"/>
      <path id="Rectangle_1_copy_2-52" data-name="Rectangle 1 copy 2" class="cls-3" d="M7055.83,8834.47l94.32-94.33a3,3,0,0,1,4.24,0l94.29,94.28a3.012,3.012,0,0,1,0,4.25l-94.33,94.32a3,3,0,0,1-4.24,0l-94.28-94.28A2.982,2.982,0,0,1,7055.83,8834.47Z" transform="translate(-5663 -7329)"/>
    </g>
    <g>
      <path class="cls-1" d="M6655.99,8834.14l94.33-94.33a3,3,0,0,1,4.24,0l94.29,94.29a3,3,0,0,1,0,4.24l-94.33,94.33a3,3,0,0,1-4.24,0l-94.29-94.29A3,3,0,0,1,6655.99,8834.14Z" transform="translate(-5663 -7329)"/>
      <path id="Rectangle_1_copy-53" data-name="Rectangle 1 copy" class="cls-2" d="M6655.41,9033.93l94.33-94.33a3,3,0,0,1,4.24,0l94.28,94.28a3.012,3.012,0,0,1,0,4.25l-94.32,94.32a3.012,3.012,0,0,1-4.25,0l-94.28-94.28A3,3,0,0,1,6655.41,9033.93Z" transform="translate(-5663 -7329)"/>
      <path id="Rectangle_1_copy_2-53" data-name="Rectangle 1 copy 2" class="cls-3" d="M6856.07,9034.22l94.33-94.33a3,3,0,0,1,4.24,0l94.28,94.29a2.982,2.982,0,0,1,0,4.24l-94.32,94.33a3,3,0,0,1-4.24,0l-94.29-94.29A3,3,0,0,1,6856.07,9034.22Z" transform="translate(-5663 -7329)"/>
    </g>
    <g>
      <path class="cls-1" d="M7055.5,8434.63l94.33-94.33a3,3,0,0,1,4.24,0l94.28,94.29a2.982,2.982,0,0,1,0,4.24l-94.32,94.33a3,3,0,0,1-4.24,0l-94.29-94.29A3,3,0,0,1,7055.5,8434.63Z" transform="translate(-5663 -7329)"/>
      <path id="Rectangle_1_copy-54" data-name="Rectangle 1 copy" class="cls-2" d="M7054.92,8634.42l94.32-94.33a3.012,3.012,0,0,1,4.25,0l94.28,94.29a3,3,0,0,1,0,4.24l-94.32,94.33a3.012,3.012,0,0,1-4.25,0l-94.28-94.29A3,3,0,0,1,7054.92,8634.42Z" transform="translate(-5663 -7329)"/>
      <path id="Rectangle_1_copy_2-54" data-name="Rectangle 1 copy 2" class="cls-3" d="M7255.58,8634.71l94.32-94.32a2.994,2.994,0,0,1,4.25,0l94.28,94.28a3,3,0,0,1,0,4.24l-94.32,94.33a3.012,3.012,0,0,1-4.25,0l-94.28-94.29A3,3,0,0,1,7255.58,8634.71Z" transform="translate(-5663 -7329)"/>
    </g>
    <g>
      <g>
        <path class="cls-1" d="M7065.24,8425.7l94.32-94.32a2.994,2.994,0,0,1,4.25,0l94.32,94.32a2.994,2.994,0,0,1,0,4.25l-94.32,94.32a3.012,3.012,0,0,1-4.25,0l-94.32-94.32A3.012,3.012,0,0,1,7065.24,8425.7Z" transform="translate(-5663 -7329)"/>
        <path id="Rectangle_1_copy-55" data-name="Rectangle 1 copy" class="cls-2" d="M7064.7,8625.53l94.32-94.32a3.012,3.012,0,0,1,4.25,0l94.32,94.32a3.012,3.012,0,0,1,0,4.25l-94.32,94.32a3.012,3.012,0,0,1-4.25,0l-94.32-94.32A3.012,3.012,0,0,1,7064.7,8625.53Z" transform="translate(-5663 -7329)"/>
        <path id="Rectangle_1_copy_2-55" data-name="Rectangle 1 copy 2" class="cls-3" d="M7265.4,8625.87l94.33-94.33a3,3,0,0,1,4.24,0l94.32,94.33a2.982,2.982,0,0,1,0,4.24l-94.32,94.33a3,3,0,0,1-4.24,0l-94.33-94.33A3,3,0,0,1,7265.4,8625.87Z" transform="translate(-5663 -7329)"/>
      </g>
      <g>
        <path class="cls-1" d="M6865.48,8625.46l94.33-94.33a3,3,0,0,1,4.24,0l94.33,94.33a3,3,0,0,1,0,4.24l-94.33,94.33a3,3,0,0,1-4.24,0l-94.33-94.33A3,3,0,0,1,6865.48,8625.46Z" transform="translate(-5663 -7329)"/>
        <path id="Rectangle_1_copy-56" data-name="Rectangle 1 copy" class="cls-2" d="M6864.94,8825.29l94.33-94.33a3,3,0,0,1,4.24,0l94.33,94.33a3,3,0,0,1,0,4.24l-94.33,94.33a3,3,0,0,1-4.24,0l-94.33-94.33A3,3,0,0,1,6864.94,8825.29Z" transform="translate(-5663 -7329)"/>
        <path id="Rectangle_1_copy_2-56" data-name="Rectangle 1 copy 2" class="cls-3" d="M7065.65,8825.62l94.32-94.32a2.994,2.994,0,0,1,4.25,0l94.32,94.32a3,3,0,0,1,0,4.24l-94.32,94.33a3.012,3.012,0,0,1-4.25,0l-94.32-94.33A3,3,0,0,1,7065.65,8825.62Z" transform="translate(-5663 -7329)"/>
      </g>
      <g>
        <path class="cls-1" d="M7264.99,8225.95l94.33-94.33a3,3,0,0,1,4.24,0l94.33,94.33a3,3,0,0,1,0,4.24l-94.33,94.33a3,3,0,0,1-4.24,0l-94.33-94.33A3,3,0,0,1,7264.99,8225.95Z" transform="translate(-5663 -7329)"/>
        <path id="Rectangle_1_copy-57" data-name="Rectangle 1 copy" class="cls-2" d="M7264.45,8425.78l94.33-94.33a3,3,0,0,1,4.24,0l94.33,94.33a3,3,0,0,1,0,4.24l-94.33,94.33a3,3,0,0,1-4.24,0l-94.33-94.33A3,3,0,0,1,7264.45,8425.78Z" transform="translate(-5663 -7329)"/>
        <path id="Rectangle_1_copy_2-57" data-name="Rectangle 1 copy 2" class="cls-3" d="M7465.15,8426.11l94.33-94.32a3,3,0,0,1,4.24,0l94.33,94.32a3.012,3.012,0,0,1,0,4.25l-94.33,94.32a3,3,0,0,1-4.24,0l-94.33-94.32A3.012,3.012,0,0,1,7465.15,8426.11Z" transform="translate(-5663 -7329)"/>
      </g>
      <g>
        <path class="cls-1" d="M7662.75,7827.38l94.33-94.33a3,3,0,0,1,4.24,0l94.29,94.29a3,3,0,0,1,0,4.24l-94.33,94.33a3,3,0,0,1-4.24,0l-94.29-94.29A3,3,0,0,1,7662.75,7827.38Z" transform="translate(-5663 -7329)"/>
        <path id="Rectangle_1_copy-58" data-name="Rectangle 1 copy" class="cls-2" d="M7662.17,8027.17l94.33-94.33a3,3,0,0,1,4.24,0l94.28,94.29a3,3,0,0,1,0,4.24l-94.32,94.32a2.994,2.994,0,0,1-4.25,0l-94.28-94.28A3,3,0,0,1,7662.17,8027.17Z" transform="translate(-5663 -7329)"/>
        <path id="Rectangle_1_copy_2-58" data-name="Rectangle 1 copy 2" class="cls-3" d="M7862.83,8027.46l94.33-94.33a3,3,0,0,1,4.24,0l94.28,94.29a2.982,2.982,0,0,1,0,4.24l-94.32,94.33a3,3,0,0,1-4.24,0l-94.29-94.29A3,3,0,0,1,7862.83,8027.46Z" transform="translate(-5663 -7329)"/>
      </g>
      <g>
        <path class="cls-1" d="M7463,8027.13l94.32-94.33a3.012,3.012,0,0,1,4.25,0l94.28,94.29a3,3,0,0,1,0,4.24l-94.32,94.33a3.012,3.012,0,0,1-4.25,0L7463,8031.37A3,3,0,0,1,7463,8027.13Z" transform="translate(-5663 -7329)"/>
        <path id="Rectangle_1_copy-59" data-name="Rectangle 1 copy" class="cls-2" d="M7462.42,8226.92l94.32-94.33a3,3,0,0,1,4.24,0l94.29,94.29a3,3,0,0,1,0,4.24l-94.33,94.33a3,3,0,0,1-4.24,0l-94.28-94.29A2.982,2.982,0,0,1,7462.42,8226.92Z" transform="translate(-5663 -7329)"/>
        <path id="Rectangle_1_copy_2-59" data-name="Rectangle 1 copy 2" class="cls-3" d="M7663.08,8227.21l94.32-94.32a3.012,3.012,0,0,1,4.25,0l94.28,94.28a3,3,0,0,1,0,4.24l-94.33,94.33a3,3,0,0,1-4.24,0l-94.28-94.28A3.012,3.012,0,0,1,7663.08,8227.21Z" transform="translate(-5663 -7329)"/>
      </g>
      <g>
        <path class="cls-1" d="M7862.5,7627.62l94.33-94.32a3,3,0,0,1,4.24,0l94.29,94.28a3.012,3.012,0,0,1,0,4.25l-94.33,94.32a3,3,0,0,1-4.24,0l-94.29-94.28A3.012,3.012,0,0,1,7862.5,7627.62Z" transform="translate(-5663 -7329)"/>
        <path id="Rectangle_1_copy-60" data-name="Rectangle 1 copy" class="cls-2" d="M7861.92,7827.41l94.33-94.32a3,3,0,0,1,4.24,0l94.29,94.28a3,3,0,0,1,0,4.24l-94.33,94.33a3,3,0,0,1-4.24,0l-94.29-94.28A3.012,3.012,0,0,1,7861.92,7827.41Z" transform="translate(-5663 -7329)"/>
        <path id="Rectangle_1_copy_2-60" data-name="Rectangle 1 copy 2" class="cls-3" d="M8062.58,7827.71l94.33-94.33a3,3,0,0,1,4.24,0l94.29,94.28a3.012,3.012,0,0,1,0,4.25l-94.33,94.32a3,3,0,0,1-4.24,0l-94.29-94.28A3,3,0,0,1,8062.58,7827.71Z" transform="translate(-5663 -7329)"/>
      </g>
    </g>
  </g>
  <g>
    <g>
      <path class="cls-1" d="M7954.92,8131.29l-94.33,94.33a3,3,0,0,0,0,4.24l94.33,94.33a3,3,0,0,0,4.24,0l94.33-94.33a3,3,0,0,0,0-4.24l-94.33-94.33A3,3,0,0,0,7954.92,8131.29Z" transform="translate(-5663 -7329)"/>
      <path id="Rectangle_1_copy-61" data-name="Rectangle 1 copy" class="cls-2" d="M8154.75,8130.75l-94.33,94.32a3.012,3.012,0,0,0,0,4.25l94.33,94.32a3,3,0,0,0,4.24,0l94.33-94.32a3.012,3.012,0,0,0,0-4.25l-94.33-94.32A3,3,0,0,0,8154.75,8130.75Z" transform="translate(-5663 -7329)"/>
      <path id="Rectangle_1_copy_2-61" data-name="Rectangle 1 copy 2" class="cls-3" d="M8155.08,8331.45l-94.32,94.33a3,3,0,0,0,0,4.24l94.32,94.33a3.012,3.012,0,0,0,4.25,0l94.32-94.33a3,3,0,0,0,0-4.24l-94.32-94.33A3.012,3.012,0,0,0,8155.08,8331.45Z" transform="translate(-5663 -7329)"/>
    </g>
    <g>
      <path class="cls-1" d="M8154.67,7931.53l-94.33,94.33a3,3,0,0,0,0,4.24l94.33,94.33a3,3,0,0,0,4.24,0l94.33-94.33a3,3,0,0,0,0-4.24l-94.33-94.33A3,3,0,0,0,8154.67,7931.53Z" transform="translate(-5663 -7329)"/>
      <path id="Rectangle_1_copy-62" data-name="Rectangle 1 copy" class="cls-2" d="M8354.5,7931l-94.32,94.32a2.982,2.982,0,0,0,0,4.24l94.32,94.33a3,3,0,0,0,4.24,0l94.33-94.33a3,3,0,0,0,0-4.24L8358.74,7931A2.982,2.982,0,0,0,8354.5,7931Z" transform="translate(-5663 -7329)"/>
      <path id="Rectangle_1_copy_2-62" data-name="Rectangle 1 copy 2" class="cls-3" d="M8354.84,8131.7l-94.33,94.32a3.012,3.012,0,0,0,0,4.25l94.33,94.32a3,3,0,0,0,4.24,0l94.33-94.32a3.012,3.012,0,0,0,0-4.25l-94.33-94.32A3,3,0,0,0,8354.84,8131.7Z" transform="translate(-5663 -7329)"/>
    </g>
    <g>
      <path class="cls-1" d="M7755.16,8331.04l-94.32,94.33a3,3,0,0,0,0,4.24l94.32,94.33a3.012,3.012,0,0,0,4.25,0l94.32-94.33a2.982,2.982,0,0,0,0-4.24l-94.32-94.33A3.012,3.012,0,0,0,7755.16,8331.04Z" transform="translate(-5663 -7329)"/>
      <path id="Rectangle_1_copy-63" data-name="Rectangle 1 copy" class="cls-2" d="M7954.99,8330.5l-94.32,94.33a3,3,0,0,0,0,4.24l94.32,94.33a3.012,3.012,0,0,0,4.25,0l94.32-94.33a3,3,0,0,0,0-4.24l-94.32-94.33A3.012,3.012,0,0,0,7954.99,8330.5Z" transform="translate(-5663 -7329)"/>
      <path id="Rectangle_1_copy_2-63" data-name="Rectangle 1 copy 2" class="cls-3" d="M7955.33,8531.21L7861,8625.53a3,3,0,0,0,0,4.24l94.33,94.33a3,3,0,0,0,4.24,0l94.33-94.33a3,3,0,0,0,0-4.24l-94.33-94.32A2.982,2.982,0,0,0,7955.33,8531.21Z" transform="translate(-5663 -7329)"/>
    </g>
    <g>
      <path class="cls-1" d="M7356.59,8728.8l-94.32,94.33a2.982,2.982,0,0,0,0,4.24l94.28,94.29a3,3,0,0,0,4.24,0l94.33-94.33a3,3,0,0,0,0-4.24l-94.28-94.29A3.012,3.012,0,0,0,7356.59,8728.8Z" transform="translate(-5663 -7329)"/>
      <path id="Rectangle_1_copy-64" data-name="Rectangle 1 copy" class="cls-2" d="M7556.38,8728.22l-94.32,94.33a2.982,2.982,0,0,0,0,4.24l94.28,94.28a2.982,2.982,0,0,0,4.24,0l94.33-94.32a3,3,0,0,0,0-4.24l-94.29-94.29A3,3,0,0,0,7556.38,8728.22Z" transform="translate(-5663 -7329)"/>
      <path id="Rectangle_1_copy_2-64" data-name="Rectangle 1 copy 2" class="cls-3" d="M7556.67,8928.88l-94.32,94.33a3,3,0,0,0,0,4.24l94.28,94.29a3.012,3.012,0,0,0,4.25,0l94.32-94.33a3,3,0,0,0,0-4.24l-94.28-94.29A3.012,3.012,0,0,0,7556.67,8928.88Z" transform="translate(-5663 -7329)"/>
    </g>
    <g>
      <path class="cls-1" d="M7556.35,8529.05l-94.33,94.33a3,3,0,0,0,0,4.24l94.29,94.28a2.982,2.982,0,0,0,4.24,0l94.33-94.32a3.012,3.012,0,0,0,0-4.25l-94.29-94.28A3,3,0,0,0,7556.35,8529.05Z" transform="translate(-5663 -7329)"/>
      <path id="Rectangle_1_copy-65" data-name="Rectangle 1 copy" class="cls-2" d="M7756.14,8528.47l-94.33,94.32a3.012,3.012,0,0,0,0,4.25l94.28,94.28a3.012,3.012,0,0,0,4.25,0l94.32-94.33a3,3,0,0,0,0-4.24l-94.28-94.28A3,3,0,0,0,7756.14,8528.47Z" transform="translate(-5663 -7329)"/>
      <path id="Rectangle_1_copy_2-65" data-name="Rectangle 1 copy 2" class="cls-3" d="M7756.43,8729.13l-94.33,94.32a3.012,3.012,0,0,0,0,4.25l94.29,94.28a3,3,0,0,0,4.24,0l94.33-94.32a3.012,3.012,0,0,0,0-4.25l-94.29-94.28A3,3,0,0,0,7756.43,8729.13Z" transform="translate(-5663 -7329)"/>
    </g>
    <g>
      <path class="cls-1" d="M7156.84,8928.56l-94.33,94.32a3.012,3.012,0,0,0,0,4.25l94.29,94.28a3,3,0,0,0,4.24,0l94.33-94.33a3,3,0,0,0,0-4.24l-94.29-94.28A2.982,2.982,0,0,0,7156.84,8928.56Z" transform="translate(-5663 -7329)"/>
      <path id="Rectangle_1_copy-66" data-name="Rectangle 1 copy" class="cls-2" d="M7356.63,8927.97l-94.33,94.33a3,3,0,0,0,0,4.24l94.29,94.29a3,3,0,0,0,4.24,0l94.32-94.33a2.982,2.982,0,0,0,0-4.24l-94.28-94.29A3,3,0,0,0,7356.63,8927.97Z" transform="translate(-5663 -7329)"/>
      <path id="Rectangle_1_copy_2-66" data-name="Rectangle 1 copy 2" class="cls-3" d="M7356.92,9128.64l-94.33,94.32a3,3,0,0,0,0,4.24l94.29,94.29a3,3,0,0,0,4.24,0l94.33-94.33a3,3,0,0,0,0-4.24l-94.29-94.28A2.982,2.982,0,0,0,7356.92,9128.64Z" transform="translate(-5663 -7329)"/>
    </g>
    <g>
      <g>
        <path class="cls-1" d="M7147.91,8938.29l-94.32,94.33a2.982,2.982,0,0,0,0,4.24l94.32,94.33a3.012,3.012,0,0,0,4.25,0l94.32-94.33a3,3,0,0,0,0-4.24l-94.32-94.33A3.012,3.012,0,0,0,7147.91,8938.29Z" transform="translate(-5663 -7329)"/>
        <path id="Rectangle_1_copy-67" data-name="Rectangle 1 copy" class="cls-2" d="M7347.74,8937.75l-94.32,94.33a3,3,0,0,0,0,4.24l94.32,94.33a3.012,3.012,0,0,0,4.25,0l94.32-94.33a3,3,0,0,0,0-4.24l-94.32-94.33A3.012,3.012,0,0,0,7347.74,8937.75Z" transform="translate(-5663 -7329)"/>
        <path id="Rectangle_1_copy_2-67" data-name="Rectangle 1 copy 2" class="cls-3" d="M7348.08,9138.46l-94.33,94.32a3.012,3.012,0,0,0,0,4.25l94.33,94.32a3,3,0,0,0,4.24,0l94.33-94.32a3.012,3.012,0,0,0,0-4.25l-94.33-94.32A3,3,0,0,0,7348.08,9138.46Z" transform="translate(-5663 -7329)"/>
      </g>
      <g>
        <path class="cls-1" d="M7347.67,8738.54l-94.33,94.33a3,3,0,0,0,0,4.24l94.33,94.33a3,3,0,0,0,4.24,0l94.33-94.33a3,3,0,0,0,0-4.24l-94.33-94.33A3,3,0,0,0,7347.67,8738.54Z" transform="translate(-5663 -7329)"/>
        <path id="Rectangle_1_copy-68" data-name="Rectangle 1 copy" class="cls-2" d="M7547.5,8738l-94.33,94.33a3,3,0,0,0,0,4.24l94.33,94.32a2.982,2.982,0,0,0,4.24,0l94.32-94.32a2.982,2.982,0,0,0,0-4.24L7551.74,8738A3,3,0,0,0,7547.5,8738Z" transform="translate(-5663 -7329)"/>
        <path id="Rectangle_1_copy_2-68" data-name="Rectangle 1 copy 2" class="cls-3" d="M7547.83,8938.7l-94.32,94.33a2.982,2.982,0,0,0,0,4.24l94.32,94.33a3,3,0,0,0,4.24,0l94.33-94.33a3,3,0,0,0,0-4.24l-94.33-94.33A3,3,0,0,0,7547.83,8938.7Z" transform="translate(-5663 -7329)"/>
      </g>
      <g>
        <path class="cls-1" d="M6948.16,9138.05l-94.33,94.33a3,3,0,0,0,0,4.24l94.33,94.32a2.982,2.982,0,0,0,4.24,0l94.33-94.32a3,3,0,0,0,0-4.24l-94.33-94.33A3,3,0,0,0,6948.16,9138.05Z" transform="translate(-5663 -7329)"/>
        <path id="Rectangle_1_copy-69" data-name="Rectangle 1 copy" class="cls-2" d="M7147.99,9137.51l-94.33,94.32a3.012,3.012,0,0,0,0,4.25l94.33,94.32a3,3,0,0,0,4.24,0l94.33-94.32a3.012,3.012,0,0,0,0-4.25l-94.33-94.32A3,3,0,0,0,7147.99,9137.51Z" transform="translate(-5663 -7329)"/>
        <path id="Rectangle_1_copy_2-69" data-name="Rectangle 1 copy 2" class="cls-3" d="M7148.32,9338.21L7054,9432.54a3,3,0,0,0,0,4.24l94.32,94.33a3.012,3.012,0,0,0,4.25,0l94.32-94.33a3,3,0,0,0,0-4.24l-94.32-94.33A3.012,3.012,0,0,0,7148.32,9338.21Z" transform="translate(-5663 -7329)"/>
      </g>
      <g>
        <path class="cls-1" d="M6549.59,9535.81l-94.33,94.32a3.012,3.012,0,0,0,0,4.25l94.29,94.28a2.982,2.982,0,0,0,4.24,0l94.33-94.32a3.012,3.012,0,0,0,0-4.25l-94.29-94.28A3,3,0,0,0,6549.59,9535.81Z" transform="translate(-5663 -7329)"/>
        <path id="Rectangle_1_copy-70" data-name="Rectangle 1 copy" class="cls-2" d="M6749.38,9535.23l-94.33,94.32a3,3,0,0,0,0,4.24l94.28,94.29a3.012,3.012,0,0,0,4.25,0l94.32-94.33a3,3,0,0,0,0-4.24l-94.28-94.28A2.982,2.982,0,0,0,6749.38,9535.23Z" transform="translate(-5663 -7329)"/>
        <path id="Rectangle_1_copy_2-70" data-name="Rectangle 1 copy 2" class="cls-3" d="M6749.67,9735.89l-94.33,94.32a3.012,3.012,0,0,0,0,4.25l94.29,94.28a3,3,0,0,0,4.24,0l94.33-94.33a3,3,0,0,0,0-4.24l-94.29-94.28A3,3,0,0,0,6749.67,9735.89Z" transform="translate(-5663 -7329)"/>
      </g>
      <g>
        <path class="cls-1" d="M6749.34,9336.05l-94.33,94.33a3,3,0,0,0,0,4.24l94.29,94.29a3,3,0,0,0,4.24,0l94.33-94.33a3,3,0,0,0,0-4.24l-94.29-94.29A3,3,0,0,0,6749.34,9336.05Z" transform="translate(-5663 -7329)"/>
        <path id="Rectangle_1_copy-71" data-name="Rectangle 1 copy" class="cls-2" d="M6949.13,9335.47l-94.33,94.33a3,3,0,0,0,0,4.24l94.29,94.29a3,3,0,0,0,4.24,0l94.33-94.33a3,3,0,0,0,0-4.24l-94.29-94.29A3,3,0,0,0,6949.13,9335.47Z" transform="translate(-5663 -7329)"/>
        <path id="Rectangle_1_copy_2-71" data-name="Rectangle 1 copy 2" class="cls-3" d="M6949.42,9536.13l-94.32,94.33a3,3,0,0,0,0,4.24l94.28,94.29a3,3,0,0,0,4.24,0l94.33-94.33a3,3,0,0,0,0-4.24l-94.28-94.29A3.012,3.012,0,0,0,6949.42,9536.13Z" transform="translate(-5663 -7329)"/>
      </g>
      <g>
        <path class="cls-1" d="M6349.83,9735.56l-94.32,94.33a2.982,2.982,0,0,0,0,4.24l94.28,94.29a3,3,0,0,0,4.24,0l94.33-94.33a3,3,0,0,0,0-4.24l-94.28-94.29A3.012,3.012,0,0,0,6349.83,9735.56Z" transform="translate(-5663 -7329)"/>
        <path id="Rectangle_1_copy-72" data-name="Rectangle 1 copy" class="cls-2" d="M6549.62,9734.98l-94.32,94.33a2.982,2.982,0,0,0,0,4.24l94.28,94.28a3,3,0,0,0,4.24,0l94.33-94.32a3.012,3.012,0,0,0,0-4.25l-94.29-94.28A3,3,0,0,0,6549.62,9734.98Z" transform="translate(-5663 -7329)"/>
        <path id="Rectangle_1_copy_2-72" data-name="Rectangle 1 copy 2" class="cls-3" d="M6549.92,9935.64l-94.33,94.36a2.951,2.951,0,0,0,0,4.2l94.28,94.3a2.959,2.959,0,0,0,4.25,0l94.32-94.3a3.073,3.073,0,0,0,0-4.3l-94.28-94.26A3,3,0,0,0,6549.92,9935.64Z" transform="translate(-5663 -7329)"/>
      </g>
    </g>
  </g>
  <g>
    <g>
      <path class="cls-1" d="M6861.38,9836.07l94.35-94.34a2.982,2.982,0,0,1,4.24,0l94.41,94.4a3,3,0,0,1,0,4.24l-94.35,94.35a3,3,0,0,1-4.24,0l-94.41-94.41A3,3,0,0,1,6861.38,9836.07Z" transform="translate(-5663 -7329)"/>
      <path id="Rectangle_1_copy-73" data-name="Rectangle 1 copy" class="cls-2" d="M6860.91,10036l94.34-94.35a3,3,0,0,1,4.24,0l94.4,94.45a2.933,2.933,0,0,1,0,4.2l-94.34,94.3a2.947,2.947,0,0,1-4.24,0l-94.4-94.4A2.933,2.933,0,0,1,6860.91,10036Z" transform="translate(-5663 -7329)"/>
      <path id="Rectangle_1_copy_2-73" data-name="Rectangle 1 copy 2" class="cls-3" d="M7061.7,10036.4l94.35-94.35a3,3,0,0,1,4.24,0l94.4,94.45a2.951,2.951,0,0,1,0,4.2l-94.34,94.3a2.947,2.947,0,0,1-4.24,0l-94.41-94.4A2.951,2.951,0,0,1,7061.7,10036.4Z" transform="translate(-5663 -7329)"/>
    </g>
    <g>
      <path class="cls-1" d="M6661.6,10035.9l94.34-94.39a3,3,0,0,1,4.24,0l94.41,94.39a3.073,3.073,0,0,1,0,4.3l-94.35,94.3a2.947,2.947,0,0,1-4.24,0l-94.4-94.4A2.933,2.933,0,0,1,6661.6,10035.9Z" transform="translate(-5663 -7329)"/>
      <path id="Rectangle_1_copy-74" data-name="Rectangle 1 copy" class="cls-2" d="M6661.12,10235.8l94.34-94.4a3.136,3.136,0,0,1,4.24,0l94.41,94.4a3.073,3.073,0,0,1,0,4.3l-94.35,94.3a2.947,2.947,0,0,1-4.24,0l-94.4-94.4A2.951,2.951,0,0,1,6661.12,10235.8Z" transform="translate(-5663 -7329)"/>
      <path id="Rectangle_1_copy_2-74" data-name="Rectangle 1 copy 2" class="cls-3" d="M6861.92,10236.2l94.34-94.4a3.136,3.136,0,0,1,4.24,0l94.4,94.4a3.054,3.054,0,0,1,0,4.3l-94.34,94.3a2.947,2.947,0,0,1-4.24,0l-94.4-94.4A2.933,2.933,0,0,1,6861.92,10236.2Z" transform="translate(-5663 -7329)"/>
    </g>
    <g>
      <path class="cls-1" d="M7061.17,9636.28l94.35-94.34a3,3,0,0,1,4.24,0l94.4,94.4a3,3,0,0,1,0,4.24l-94.34,94.35a3,3,0,0,1-4.24,0l-94.41-94.41A3,3,0,0,1,7061.17,9636.28Z" transform="translate(-5663 -7329)"/>
      <path id="Rectangle_1_copy-75" data-name="Rectangle 1 copy" class="cls-2" d="M7060.69,9836.21l94.35-94.35a3,3,0,0,1,4.24,0l94.4,94.41a3,3,0,0,1,0,4.24l-94.34,94.34a3,3,0,0,1-4.24,0l-94.41-94.4A3,3,0,0,1,7060.69,9836.21Z" transform="translate(-5663 -7329)"/>
      <path id="Rectangle_1_copy_2-75" data-name="Rectangle 1 copy 2" class="cls-3" d="M7261.49,9836.6l94.35-94.34a3,3,0,0,1,4.24,0l94.4,94.4a3.012,3.012,0,0,1,0,4.25l-94.34,94.34a3,3,0,0,1-4.24,0l-94.41-94.4A3.012,3.012,0,0,1,7261.49,9836.6Z" transform="translate(-5663 -7329)"/>
    </g>
    <g>
      <path class="cls-1" d="M7459,9237.64l94.34-94.34a3.012,3.012,0,0,1,4.25,0l94.36,94.36a3,3,0,0,1,0,4.24l-94.34,94.35a3.012,3.012,0,0,1-4.25,0L7459,9241.88A3,3,0,0,1,7459,9237.64Z" transform="translate(-5663 -7329)"/>
      <path id="Rectangle_1_copy-76" data-name="Rectangle 1 copy" class="cls-2" d="M7458.48,9437.53l94.34-94.35a3,3,0,0,1,4.24,0l94.37,94.37a3,3,0,0,1,0,4.24l-94.35,94.34a3,3,0,0,1-4.24,0l-94.36-94.36A3,3,0,0,1,7458.48,9437.53Z" transform="translate(-5663 -7329)"/>
      <path id="Rectangle_1_copy_2-76" data-name="Rectangle 1 copy 2" class="cls-3" d="M7659.24,9437.88l94.34-94.34a3,3,0,0,1,4.24,0l94.36,94.36a2.982,2.982,0,0,1,0,4.24l-94.34,94.35a3,3,0,0,1-4.24,0l-94.36-94.37A2.982,2.982,0,0,1,7659.24,9437.88Z" transform="translate(-5663 -7329)"/>
    </g>
    <g>
      <path class="cls-1" d="M7259.21,9437.43l94.35-94.34a2.982,2.982,0,0,1,4.24,0l94.36,94.36a3,3,0,0,1,0,4.24l-94.34,94.35a3.012,3.012,0,0,1-4.25,0l-94.36-94.37A3,3,0,0,1,7259.21,9437.43Z" transform="translate(-5663 -7329)"/>
      <path id="Rectangle_1_copy-77" data-name="Rectangle 1 copy" class="cls-2" d="M7258.69,9637.31l94.34-94.34a3.012,3.012,0,0,1,4.25,0l94.36,94.36a3.012,3.012,0,0,1,0,4.25l-94.34,94.34a3.012,3.012,0,0,1-4.25,0l-94.36-94.36A3.012,3.012,0,0,1,7258.69,9637.31Z" transform="translate(-5663 -7329)"/>
      <path id="Rectangle_1_copy_2-77" data-name="Rectangle 1 copy 2" class="cls-3" d="M7459.45,9637.67l94.34-94.34a2.982,2.982,0,0,1,4.24,0l94.37,94.36a3,3,0,0,1,0,4.24l-94.35,94.34a3,3,0,0,1-4.24,0l-94.36-94.36A3,3,0,0,1,7459.45,9637.67Z" transform="translate(-5663 -7329)"/>
    </g>
    <g>
      <path class="cls-1" d="M7658.79,9037.85l94.34-94.34a3,3,0,0,1,4.24,0l94.37,94.36a3.012,3.012,0,0,1,0,4.25l-94.35,94.34a3,3,0,0,1-4.24,0l-94.36-94.36A3.012,3.012,0,0,1,7658.79,9037.85Z" transform="translate(-5663 -7329)"/>
      <path id="Rectangle_1_copy-78" data-name="Rectangle 1 copy" class="cls-2" d="M7658.27,9237.74l94.34-94.34a2.982,2.982,0,0,1,4.24,0l94.36,94.36a2.982,2.982,0,0,1,0,4.24l-94.34,94.34a3,3,0,0,1-4.24,0l-94.36-94.36A3,3,0,0,1,7658.27,9237.74Z" transform="translate(-5663 -7329)"/>
      <path id="Rectangle_1_copy_2-78" data-name="Rectangle 1 copy 2" class="cls-3" d="M7859.02,9238.09l94.35-94.34a3,3,0,0,1,4.24,0l94.36,94.36a3,3,0,0,1,0,4.24l-94.34,94.35a3,3,0,0,1-4.24,0l-94.37-94.36A3.012,3.012,0,0,1,7859.02,9238.09Z" transform="translate(-5663 -7329)"/>
    </g>
    <g>
      <g>
        <path class="cls-1" d="M7668.53,9028.93l94.34-94.35a3,3,0,0,1,4.24,0l94.41,94.41a3,3,0,0,1,0,4.24l-94.35,94.34a3,3,0,0,1-4.24,0l-94.4-94.4A3,3,0,0,1,7668.53,9028.93Z" transform="translate(-5663 -7329)"/>
        <path id="Rectangle_1_copy-79" data-name="Rectangle 1 copy" class="cls-2" d="M7668.05,9228.85l94.34-94.34a3,3,0,0,1,4.24,0l94.41,94.4a3,3,0,0,1,0,4.24l-94.35,94.35a3,3,0,0,1-4.24,0l-94.4-94.41A3,3,0,0,1,7668.05,9228.85Z" transform="translate(-5663 -7329)"/>
        <path id="Rectangle_1_copy_2-79" data-name="Rectangle 1 copy 2" class="cls-3" d="M7868.85,9229.25l94.34-94.34a2.982,2.982,0,0,1,4.24,0l94.41,94.4a3,3,0,0,1,0,4.24l-94.35,94.34a2.982,2.982,0,0,1-4.24,0l-94.4-94.4A3,3,0,0,1,7868.85,9229.25Z" transform="translate(-5663 -7329)"/>
      </g>
      <g>
        <path class="cls-1" d="M7468.74,9228.71l94.34-94.34a3.012,3.012,0,0,1,4.25,0l94.4,94.4a3.012,3.012,0,0,1,0,4.25l-94.34,94.34a3.012,3.012,0,0,1-4.25,0l-94.4-94.4A3.012,3.012,0,0,1,7468.74,9228.71Z" transform="translate(-5663 -7329)"/>
        <path id="Rectangle_1_copy-80" data-name="Rectangle 1 copy" class="cls-2" d="M7468.26,9428.64l94.34-94.34a3.012,3.012,0,0,1,4.25,0l94.4,94.4a3,3,0,0,1,0,4.24l-94.34,94.35a3.012,3.012,0,0,1-4.25,0l-94.4-94.41A3,3,0,0,1,7468.26,9428.64Z" transform="translate(-5663 -7329)"/>
        <path id="Rectangle_1_copy_2-80" data-name="Rectangle 1 copy 2" class="cls-3" d="M7669.06,9429.04l94.34-94.35a3.012,3.012,0,0,1,4.25,0l94.4,94.41a3,3,0,0,1,0,4.24l-94.34,94.34a3.012,3.012,0,0,1-4.25,0l-94.4-94.4A3,3,0,0,1,7669.06,9429.04Z" transform="translate(-5663 -7329)"/>
      </g>
      <g>
        <path class="cls-1" d="M7868.32,8829.14l94.34-94.35a3,3,0,0,1,4.24,0l94.41,94.41a3,3,0,0,1,0,4.24l-94.35,94.35a3,3,0,0,1-4.24,0l-94.4-94.41A2.982,2.982,0,0,1,7868.32,8829.14Z" transform="translate(-5663 -7329)"/>
        <path id="Rectangle_1_copy-81" data-name="Rectangle 1 copy" class="cls-2" d="M7867.84,9029.06l94.34-94.34a3,3,0,0,1,4.24,0l94.41,94.4a3.012,3.012,0,0,1,0,4.25l-94.35,94.34a3,3,0,0,1-4.24,0l-94.4-94.4A3.012,3.012,0,0,1,7867.84,9029.06Z" transform="translate(-5663 -7329)"/>
        <path id="Rectangle_1_copy_2-81" data-name="Rectangle 1 copy 2" class="cls-3" d="M8068.64,9029.46l94.34-94.34a3,3,0,0,1,4.24,0l94.4,94.4a2.982,2.982,0,0,1,0,4.24l-94.34,94.35a3,3,0,0,1-4.24,0l-94.4-94.41A2.982,2.982,0,0,1,8068.64,9029.46Z" transform="translate(-5663 -7329)"/>
      </g>
      <g>
        <path class="cls-1" d="M8266.14,8430.5l94.35-94.35a3,3,0,0,1,4.24,0l94.36,94.37a3,3,0,0,1,0,4.24l-94.34,94.34a2.982,2.982,0,0,1-4.24,0l-94.37-94.36A3,3,0,0,1,8266.14,8430.5Z" transform="translate(-5663 -7329)"/>
        <path id="Rectangle_1_copy-82" data-name="Rectangle 1 copy" class="cls-2" d="M8265.62,8630.38l94.35-94.34a3,3,0,0,1,4.24,0l94.36,94.36a3,3,0,0,1,0,4.24l-94.34,94.35a3.012,3.012,0,0,1-4.25,0l-94.36-94.37A3,3,0,0,1,8265.62,8630.38Z" transform="translate(-5663 -7329)"/>
        <path id="Rectangle_1_copy_2-82" data-name="Rectangle 1 copy 2" class="cls-3" d="M8466.38,8630.74l94.34-94.35a3.012,3.012,0,0,1,4.25,0l94.36,94.37a3,3,0,0,1,0,4.24l-94.35,94.34a3,3,0,0,1-4.24,0l-94.36-94.36A3,3,0,0,1,8466.38,8630.74Z" transform="translate(-5663 -7329)"/>
      </g>
      <g>
        <path class="cls-1" d="M8066.36,8630.29l94.34-94.35a3,3,0,0,1,4.24,0l94.37,94.37a3,3,0,0,1,0,4.24l-94.35,94.34a3,3,0,0,1-4.24,0l-94.36-94.36A2.982,2.982,0,0,1,8066.36,8630.29Z" transform="translate(-5663 -7329)"/>
        <path id="Rectangle_1_copy-83" data-name="Rectangle 1 copy" class="cls-2" d="M8065.83,8830.17l94.35-94.34a3,3,0,0,1,4.24,0l94.36,94.36a3,3,0,0,1,0,4.24l-94.34,94.34a2.982,2.982,0,0,1-4.24,0l-94.37-94.36A3,3,0,0,1,8065.83,8830.17Z" transform="translate(-5663 -7329)"/>
        <path id="Rectangle_1_copy_2-83" data-name="Rectangle 1 copy 2" class="cls-3" d="M8266.59,8830.53l94.34-94.35a3.012,3.012,0,0,1,4.25,0l94.36,94.36a3.012,3.012,0,0,1,0,4.25l-94.34,94.34a3.012,3.012,0,0,1-4.25,0l-94.36-94.36A3,3,0,0,1,8266.59,8830.53Z" transform="translate(-5663 -7329)"/>
      </g>
      <g>
        <path class="cls-1" d="M8465.93,8230.71l94.35-94.34a2.982,2.982,0,0,1,4.24,0l94.36,94.36a3,3,0,0,1,0,4.24l-94.34,94.35a3.012,3.012,0,0,1-4.25,0l-94.36-94.37A3,3,0,0,1,8465.93,8230.71Z" transform="translate(-5663 -7329)"/>
        <path id="Rectangle_1_copy-84" data-name="Rectangle 1 copy" class="cls-2" d="M8465.41,8430.59l94.34-94.34a3.012,3.012,0,0,1,4.25,0l94.36,94.36a3.012,3.012,0,0,1,0,4.25l-94.34,94.34a3.012,3.012,0,0,1-4.25,0l-94.36-94.36A3.012,3.012,0,0,1,8465.41,8430.59Z" transform="translate(-5663 -7329)"/>
        <path id="Rectangle_1_copy_2-84" data-name="Rectangle 1 copy 2" class="cls-3" d="M8666.17,8430.95l94.34-94.34a2.982,2.982,0,0,1,4.24,0l94.37,94.36a3,3,0,0,1,0,4.24l-94.35,94.34a2.982,2.982,0,0,1-4.24,0l-94.36-94.36A3,3,0,0,1,8666.17,8430.95Z" transform="translate(-5663 -7329)"/>
      </g>
    </g>
  </g>
</svg>
